<svg xmlns:mydata="http://www.w3.org/2000/svg" mydata:contrastcolor="11111f" mydata:template="Contrast" mydata:presentation="2.5" mydata:layouttype="undefined" mydata:specialfontid="undefined" mydata:id1="799" mydata:id2="052" mydata:companyname="DIY" mydata:companytagline="Pet Shipping Consults" version="1.1" xmlns="http://www.w3.org/2000/svg" xmlns:xlink="http://www.w3.org/1999/xlink" viewBox="0 0 550 470" style="height: 787px;"><g fill="#c1a01e" fill-rule="none" stroke="none" stroke-width="1" stroke-linecap="butt" stroke-linejoin="miter" stroke-miterlimit="10" stroke-dasharray="" stroke-dashoffset="0" font-family="none" font-weight="none" font-size="none" text-anchor="none" style="mix-blend-mode: normal"><g data-paper-data="{&quot;isGlobalGroup&quot;:true,&quot;bounds&quot;:{&quot;x&quot;:65,&quot;y&quot;:159.86540126771257,&quot;width&quot;:420,&quot;height&quot;:150.26919746457486}}"><g data-paper-data="{&quot;textHeightFactor&quot;:0.3523559115190187,&quot;isSecondaryText&quot;:true}" fill-rule="nonzero" id="element-id-32959"><path d="M294.67376,295.31409v9.37298h1.71635v-2.87276h0.64515c2.2276,0 3.32315,-0.90078 3.32315,-2.83624v-0.86426c0,-1.98415 -1.05903,-2.79972 -3.32315,-2.79972zM296.37794,300.19535v-3.34749h0.68167c1.30248,0 1.59462,0.46256 1.59462,1.35117v0.69384c0,0.88861 -0.4017,1.30248 -1.61897,1.30248z" data-paper-data="{&quot;glyphName&quot;:&quot;P&quot;,&quot;glyphIndex&quot;:0,&quot;firstGlyphOfWord&quot;:true,&quot;word&quot;:1}" id="element-id-2317"></path><path d="M304.25774,295.31409v9.38516h5.56293v-1.53376h-3.88309v-2.47106h3.1649v-1.50942h-3.1649v-2.4102h3.71267v-1.46072z" data-paper-data="{&quot;glyphName&quot;:&quot;E&quot;,&quot;glyphIndex&quot;:1,&quot;word&quot;:1}" id="element-id-75734"></path><path d="M318.45517,295.35061h-5.55075v1.49724h1.94763v7.83922h1.66766v-7.83922h1.93546z" data-paper-data="{&quot;glyphName&quot;:&quot;T&quot;,&quot;glyphIndex&quot;:2,&quot;lastGlyphOfWord&quot;:true,&quot;word&quot;:1}" id="element-id-54102"></path><path d="M331.58546,297.76081h1.69201c-0.15825,-1.8746 -1.27813,-2.4954 -2.97014,-2.4954c-1.92329,0 -2.99449,0.91295 -2.99449,2.66582c0,1.93546 1.11989,2.45889 2.17891,2.59279c0.99816,0.1339 2.31281,0.1339 2.31281,1.24162c0,1.05903 -0.46256,1.48507 -1.4729,1.48507c-1.0712,0 -1.38769,-0.38953 -1.42421,-1.10772h-1.69201c0,1.50942 0.74253,2.64148 3.07969,2.64148c2.25195,0 3.18925,-0.91295 3.18925,-3.07969c0,-1.8746 -1.03468,-2.31281 -2.11805,-2.48323c-1.42421,-0.21911 -2.3615,-0.12173 -2.3615,-1.30248c0,-0.88861 0.37735,-1.18075 1.30248,-1.18075c0.81557,0 1.22944,0.23128 1.27813,1.02251z" data-paper-data="{&quot;glyphName&quot;:&quot;S&quot;,&quot;glyphIndex&quot;:3,&quot;firstGlyphOfWord&quot;:true,&quot;word&quot;:2}" id="element-id-49706"></path><path d="M343.70136,295.31409h-1.66766v3.98047h-2.92145v-3.98047h-1.69201v9.38516h1.69201v-3.87092h2.92145v3.85875h1.66766z" data-paper-data="{&quot;glyphName&quot;:&quot;H&quot;,&quot;glyphIndex&quot;:4,&quot;word&quot;:2}" id="element-id-59267"></path><path d="M349.62135,295.32627h-1.69201v9.37298h1.69201z" data-paper-data="{&quot;glyphName&quot;:&quot;I&quot;,&quot;glyphIndex&quot;:5,&quot;word&quot;:2}" id="element-id-71756"></path><path d="M353.86151,295.31409v9.37298h1.71635v-2.87276h0.64515c2.2276,0 3.32315,-0.90078 3.32315,-2.83624v-0.86426c0,-1.98415 -1.05903,-2.79972 -3.32315,-2.79972zM355.56569,300.19535v-3.34749h0.68167c1.30248,0 1.59462,0.46256 1.59462,1.35117v0.69384c0,0.88861 -0.4017,1.30248 -1.61897,1.30248z" data-paper-data="{&quot;glyphName&quot;:&quot;P&quot;,&quot;glyphIndex&quot;:6,&quot;word&quot;:2}" id="element-id-49389"></path><path d="M363.44548,295.31409v9.37298h1.71635v-2.87276h0.64515c2.2276,0 3.32315,-0.90078 3.32315,-2.83624v-0.86426c0,-1.98415 -1.05903,-2.79972 -3.32315,-2.79972zM365.14966,300.19535v-3.34749h0.68167c1.30248,0 1.59462,0.46256 1.59462,1.35117v0.69384c0,0.88861 -0.4017,1.30248 -1.61897,1.30248z" data-paper-data="{&quot;glyphName&quot;:&quot;P&quot;,&quot;glyphIndex&quot;:7,&quot;word&quot;:2}" id="element-id-57417"></path><path d="M374.72146,295.32627h-1.69201v9.37298h1.69201z" data-paper-data="{&quot;glyphName&quot;:&quot;I&quot;,&quot;glyphIndex&quot;:8,&quot;word&quot;:2}" id="element-id-6318"></path><path d="M384.85321,295.32627h-1.66766v2.21543l0.18259,3.95613l-2.75103,-6.17156h-1.66766v9.36081h1.66766v-2.38585l-0.14607,-3.55443l2.75103,5.94028h1.63114z" data-paper-data="{&quot;glyphName&quot;:&quot;N&quot;,&quot;glyphIndex&quot;:9,&quot;word&quot;:2}" id="element-id-76201"></path><path d="M392.10003,300.87702h1.59462v0.91295c0,0.92513 -0.42604,1.43638 -1.64332,1.43638c-1.21727,0 -1.44855,-0.51125 -1.44855,-1.39986v-3.67616c0,-0.85209 0.23128,-1.39986 1.44855,-1.39986c1.30248,0 1.52159,0.43822 1.52159,1.31465h1.67983c0,-2.0085 -0.9373,-2.79972 -3.20142,-2.79972c-2.26412,0 -3.12839,0.88861 -3.12839,2.79972v3.76137c0,2.02067 0.90078,2.90928 3.12839,2.90928c2.2276,0 3.20142,-0.88861 3.20142,-2.94579v-2.43454h-3.15273z" data-paper-data="{&quot;glyphName&quot;:&quot;G&quot;,&quot;glyphIndex&quot;:10,&quot;lastGlyphOfWord&quot;:true,&quot;word&quot;:2}" id="element-id-41320"></path><path d="M409.40556,301.78997c0,0.92513 -0.30432,1.43638 -1.52159,1.43638c-1.21727,0 -1.44855,-0.51125 -1.44855,-1.39986v-3.63964c0,-0.88861 0.23128,-1.39986 1.44855,-1.39986c1.30248,0 1.52159,0.51125 1.52159,1.42421h1.67983c0,-2.08153 -0.9373,-2.90928 -3.20142,-2.90928c-2.26412,0 -3.12839,0.81557 -3.12839,2.79972v3.81006c0,1.93546 0.90078,2.79972 3.12839,2.79972c2.2276,0 3.20142,-0.86426 3.20142,-2.92145z" data-paper-data="{&quot;glyphName&quot;:&quot;C&quot;,&quot;glyphIndex&quot;:11,&quot;firstGlyphOfWord&quot;:true,&quot;word&quot;:3}" id="element-id-25517"></path><path d="M417.79661,304.77228c2.2276,0 3.20142,-0.86426 3.20142,-2.79972v-3.9683c0,-1.98415 -0.9373,-2.79972 -3.20142,-2.79972c-2.26412,0 -3.12839,0.81557 -3.12839,2.79972v3.9683c0,1.93546 0.90078,2.79972 3.12839,2.79972zM417.79661,303.28721c-1.21727,0 -1.44855,-0.51125 -1.44855,-1.39986v-3.79788c0,-0.85209 0.23128,-1.39986 1.44855,-1.39986c1.30248,0 1.52159,0.54777 1.52159,1.39986v3.79788c0,0.88861 -0.30432,1.39986 -1.52159,1.39986z" data-paper-data="{&quot;glyphName&quot;:&quot;O&quot;,&quot;glyphIndex&quot;:12,&quot;word&quot;:3}" id="element-id-51271"></path><path d="M431.0324,295.32627h-1.66766v2.21543l0.18259,3.95613l-2.75103,-6.17156h-1.66766v9.36081h1.66766v-2.38585l-0.14607,-3.55443l2.75103,5.94028h1.63114z" data-paper-data="{&quot;glyphName&quot;:&quot;N&quot;,&quot;glyphIndex&quot;:13,&quot;word&quot;:3}" id="element-id-18190"></path><path d="M439.31389,297.76081h1.69201c-0.15825,-1.8746 -1.27813,-2.4954 -2.97014,-2.4954c-1.92329,0 -2.99449,0.91295 -2.99449,2.66582c0,1.93546 1.11989,2.45889 2.17891,2.59279c0.99816,0.1339 2.31281,0.1339 2.31281,1.24162c0,1.05903 -0.46256,1.48507 -1.4729,1.48507c-1.0712,0 -1.38769,-0.38953 -1.42421,-1.10772h-1.69201c0,1.50942 0.74253,2.64148 3.07969,2.64148c2.25195,0 3.18925,-0.91295 3.18925,-3.07969c0,-1.8746 -1.03468,-2.31281 -2.11805,-2.48323c-1.42421,-0.21911 -2.3615,-0.12173 -2.3615,-1.30248c0,-0.88861 0.37735,-1.18075 1.30248,-1.18075c0.81557,0 1.22944,0.23128 1.27813,1.02251z" data-paper-data="{&quot;glyphName&quot;:&quot;S&quot;,&quot;glyphIndex&quot;:14,&quot;word&quot;:3}" id="element-id-29651"></path><path d="M449.56737,301.82649c0,0.88861 -0.47474,1.46072 -1.4729,1.46072c-0.99816,0 -1.38769,-0.57212 -1.38769,-1.46072v-6.50022h-1.67983v6.58543c0,1.93546 1.09554,2.86059 3.06752,2.86059c1.97198,0 3.15273,-0.92513 3.15273,-2.86059v-6.58543h-1.67983z" data-paper-data="{&quot;glyphName&quot;:&quot;U&quot;,&quot;glyphIndex&quot;:15,&quot;word&quot;:3}" id="element-id-6731"></path><path d="M460.74597,303.15331h-3.61529v-7.83922h-1.69201v9.37298h5.3073z" data-paper-data="{&quot;glyphName&quot;:&quot;L&quot;,&quot;glyphIndex&quot;:16,&quot;word&quot;:3}" id="element-id-40740"></path><path d="M468.04147,295.35061h-5.55075v1.49724h1.94763v7.83922h1.66766v-7.83922h1.93546z" data-paper-data="{&quot;glyphName&quot;:&quot;T&quot;,&quot;glyphIndex&quot;:17,&quot;word&quot;:3}" id="element-id-1667"></path><path d="M475.58044,297.76081h1.69201c-0.15825,-1.8746 -1.27813,-2.4954 -2.97014,-2.4954c-1.92329,0 -2.99449,0.91295 -2.99449,2.66582c0,1.93546 1.11989,2.45889 2.17891,2.59279c0.99816,0.1339 2.31281,0.1339 2.31281,1.24162c0,1.05903 -0.46256,1.48507 -1.4729,1.48507c-1.0712,0 -1.38769,-0.38953 -1.42421,-1.10772h-1.69201c0,1.50942 0.74253,2.64148 3.07969,2.64148c2.25195,0 3.18925,-0.91295 3.18925,-3.07969c0,-1.8746 -1.03468,-2.31281 -2.11805,-2.48323c-1.42421,-0.21911 -2.3615,-0.12173 -2.3615,-1.30248c0,-0.88861 0.37735,-1.18075 1.30248,-1.18075c0.81557,0 1.22944,0.23128 1.27813,1.02251z" data-paper-data="{&quot;glyphName&quot;:&quot;S&quot;,&quot;glyphIndex&quot;:18,&quot;lastGlyphOfWord&quot;:true,&quot;word&quot;:3}" id="element-id-92494"></path><path d="M294.34638,278.72427v-1.128h190.65362v1.128z" data-paper-data="{&quot;isContainerTopLineAboveSecondaryText&quot;:true}" id="element-id-67029"></path></g><g data-paper-data="{&quot;isPrimaryText&quot;:true}" fill-rule="nonzero" id="element-id-50838"><path d="M354.46937,184.94865l-1.25956,8.81692h-30.78924c-6.43775,0 -10.77623,0.13995 -12.8755,0.5598c-2.23922,0.2799 -4.05858,1.11961 -5.17819,2.23922c-1.11961,1.11961 -1.95932,2.93897 -2.65907,5.45809c-0.41985,1.81936 -0.97966,5.59804 -1.81936,11.47599c-0.5598,3.35883 -1.25956,8.39707 -2.23922,15.11472c-0.83971,6.5777 -1.53946,11.47599 -1.95932,14.83482c-0.5598,4.47843 -0.97966,7.41741 -1.25956,9.09682c-0.2799,4.05858 0.13995,6.71765 1.25956,8.11716c0.83971,0.83971 2.23922,1.53946 4.19853,1.95932c1.95932,0.2799 6.15785,0.5598 12.8755,0.5598h30.78924c6.43775,0 10.77623,-0.13995 12.73555,-0.41985c2.09927,-0.41985 3.63873,-0.97966 4.75834,-1.67941c1.53946,-1.11961 2.65907,-3.21888 3.35883,-6.0179c0.5598,-1.81936 1.11961,-5.73799 1.81936,-11.61594l0.69976,-5.17819l10.21643,-73.05447c-6.0179,0 -9.93653,0 -11.89584,0.2799c-2.65907,0.2799 -4.61839,1.11961 -5.87795,2.23922c-1.11961,0.97966 -2.09927,2.79902 -2.79902,5.31814c-0.5598,1.95932 -1.25956,5.87795 -2.09927,11.89584zM324.51983,213.49867c0.2799,0 0.5598,0 0.97966,0h24.91129l-3.35883,24.77134c-0.2799,1.39951 -0.41985,2.23922 -0.69976,2.79902c-0.13995,0.83971 -0.41985,1.39951 -0.83971,1.67941c-0.2799,0.2799 -0.69976,0.41985 -1.25956,0.5598c-0.5598,0 -1.67941,0.13995 -3.63873,0.13995h-25.05125l3.49878,-24.77134c0.2799,-1.39951 0.41985,-2.37917 0.41985,-2.79902c0.2799,-0.83971 0.41985,-1.25956 0.69976,-1.53946c0.2799,-0.41985 0.83971,-0.69976 1.39951,-0.69976c0.5598,-0.13995 1.53946,-0.13995 2.93897,-0.13995z" data-paper-data="{&quot;glyphName&quot;:&quot;d&quot;,&quot;glyphIndex&quot;:0,&quot;firstGlyphOfWord&quot;:true,&quot;word&quot;:1}" id="element-id-21164"></path><path d="M409.19024,165.21554c-6.5777,0 -10.91619,0.13995 -12.8755,0.41985c-2.23922,0.2799 -4.05858,1.11961 -5.17819,2.23922c-1.11961,1.11961 -2.09927,3.21888 -2.79902,6.2978c-0.41985,1.67941 -0.97966,5.31814 -1.81936,10.63628l-0.41985,3.77868h19.87306zM385.39856,193.76557l-4.75834,33.86816l-5.03824,35.54758c6.99755,0 11.47599,-0.2799 13.4353,-0.69976c2.65907,-0.5598 4.47843,-1.67941 5.59804,-3.35883c0.83971,-1.25956 1.53946,-3.07892 1.95932,-5.59804c0.41985,-1.81936 0.97966,-5.17819 1.67941,-9.93653l2.93897,-21.55247l4.05858,-28.27012z" data-paper-data="{&quot;glyphName&quot;:&quot;i&quot;,&quot;glyphIndex&quot;:1,&quot;word&quot;:1}" id="element-id-5603"></path><path d="M415.9079,193.76557l-2.79902,19.59315l-4.19853,30.22944c-0.69976,5.31814 -1.11961,8.95687 -1.11961,10.77623c-0.13995,2.79902 0.13995,4.75834 0.97966,6.0179c0.83971,1.11961 2.65907,1.95932 5.17819,2.37917c1.95932,0.2799 6.0179,0.41985 12.17575,0.41985h30.78924c-0.2799,2.23922 -0.41985,3.77868 -0.69976,4.61839c-0.13995,1.11961 -0.41985,1.95932 -0.69976,2.65907c-0.41985,0.69976 -1.25956,1.25956 -2.37917,1.53946c-0.83971,0.13995 -2.51912,0.2799 -5.31814,0.2799h-22.95198c-5.03824,0 -8.39707,0 -10.07648,0.2799c-2.93897,0.2799 -5.17819,0.97966 -6.5777,2.09927c-1.39951,1.11961 -2.65907,3.35883 -3.63873,6.5777c-0.41985,1.67941 -1.25956,5.31814 -2.37917,10.77623h19.87306h30.78924c5.73799,0 9.51667,-0.13995 11.33604,-0.2799c3.35883,-0.41985 5.59804,-1.25956 6.8576,-2.65907c1.11961,-1.25956 2.09927,-3.21888 2.65907,-5.73799c0.5598,-1.95932 1.11961,-5.59804 1.81936,-11.05614l1.25956,-9.09682l2.79902,-19.59315l4.19853,-30.22944c0.5598,-3.63873 0.83971,-6.15785 0.97966,-7.55736c0.41985,-4.19853 0.2799,-7.13751 -0.41985,-8.53702c-0.69976,-1.67941 -2.65907,-2.79902 -5.73799,-3.21888c-1.81936,-0.2799 -5.73799,-0.2799 -11.89584,-0.2799l-2.79902,19.59315l-3.49878,25.1912c-0.13995,0.97966 -0.2799,1.67941 -0.41985,2.23922c-0.13995,0.5598 -0.2799,0.97966 -0.41985,1.25956c-0.2799,0.5598 -0.69976,0.97966 -1.39951,1.25956c-0.41985,0.13995 -1.67941,0.2799 -3.77868,0.2799h-25.4711l4.19853,-30.22944c0.83971,-6.43775 1.25956,-10.21643 1.25956,-11.61594c0.13995,-2.93897 -0.41985,-4.89829 -1.53946,-5.87795c-1.11961,-1.25956 -3.77868,-1.95932 -7.83726,-2.09927c-1.53946,0 -4.61839,0 -9.09682,0z" data-paper-data="{&quot;glyphName&quot;:&quot;y&quot;,&quot;glyphIndex&quot;:2,&quot;lastGlyphOfWord&quot;:true,&quot;word&quot;:1}" id="element-id-54639"></path></g><g data-paper-data="{&quot;fillRule&quot;:&quot;evenodd&quot;,&quot;fillRuleOriginal&quot;:&quot;evenodd&quot;,&quot;isIcon&quot;:true,&quot;iconStyle&quot;:&quot;standalone&quot;,&quot;selectedEffects&quot;:{&quot;container&quot;:&quot;&quot;,&quot;transformation&quot;:&quot;&quot;,&quot;pattern&quot;:&quot;&quot;},&quot;bounds&quot;:{&quot;x&quot;:65,&quot;y&quot;:159.86540126771257,&quot;width&quot;:175.57935252551948,&quot;height&quot;:150.26919746457486},&quot;iconType&quot;:&quot;icon&quot;,&quot;rawIconId&quot;:&quot;13236&quot;,&quot;isDetailed&quot;:false,&quot;suitableAsStandaloneIcon&quot;:true}" fill-rule="evenodd" id="element-id-26563"><path d="M179.34714,159.92504c-7.84959,0.52451 -13.60475,4.4493 -15.43692,12.29889c-0.78677,4.18705 -0.52451,8.11185 -0.78858,10.72717c0.09116,1.71696 0.02622,3.34041 -0.03328,4.82696c-0.11286,2.81843 -0.20601,5.14527 0.82185,6.68698c3.40209,5.23427 7.58733,11.51393 12.29709,13.08385c4.19067,1.04541 10.99304,-3.66435 14.65376,-7.32869c8.63454,-8.89318 7.59095,-19.36171 4.18705,-30.35114c-2.61713,-7.58733 -8.11365,-10.46672 -15.70098,-9.94402zM142.97679,183.99832c-3.13802,-9.94221 -13.60475,-17.7918 -21.19569,-15.43692c-9.68176,3.13983 -14.12745,10.20446 -13.08385,21.19569c0,0.23856 -0.01356,0.51782 -0.0284,0.8224c-0.05028,1.0322 -0.11485,2.35451 0.28885,3.36285c4.18705,6.54193 7.06644,14.65376 12.82159,18.84081c3.9266,2.87577 15.17828,2.09262 17.27271,-1.04722c4.18705,-5.75697 4.18705,-14.91603 5.75697,-22.50336c0.1758,-1.04558 -0.46338,-2.32322 -1.06458,-3.52436c-0.30132,-0.60211 -0.59306,-1.18504 -0.7676,-1.70991zM240.57935,216.18343c0,-10.72717 -6.54374,-17.53134 -16.2255,-17.53134c-10.72717,0 -20.14667,9.68176 -20.40893,21.45614c-0.52632,10.20446 7.84959,19.36352 17.26728,19.62397c9.42312,0.26406 19.36714,-11.51032 19.36714,-23.54876zM65,252.29153c0.26225,10.98942 14.91603,26.16951 24.59779,26.16951c9.15906,-0.26045 17.53134,-14.13107 17.52954,-28.00168c0,-10.46491 -11.24987,-23.54876 -20.14667,-23.54876c-9.94221,-0.26045 -21.98066,13.86881 -21.98066,25.38093zM135.6499,308.81399c8.8968,3.92299 15.69917,-1.57353 21.71839,-7.59275c6.15867,-6.03007 9.35873,-9.16321 13.19726,-10.6758c4.15178,-1.63593 9.05072,-1.37585 19.24831,-0.83452c14.65376,0.52451 24.07327,-9.15544 19.36352,-20.92982c-3.40028,-8.63997 -9.41951,-15.17828 -19.36352,-16.75182c-4.70975,-0.5227 -9.94402,-2.09081 -13.34429,-4.70613c-14.91603,-11.25168 -32.18512,-3.14345 -36.63261,12.29709c-2.61532,8.63454 -8.89861,13.08566 -13.34429,19.62578c-3.4039,5.49652 -7.06644,13.34429 -5.49652,18.57675c1.31128,4.71156 8.63454,8.89499 14.65376,10.99123z" data-paper-data="{&quot;isPathIcon&quot;:true}" id="element-id-28099"></path></g></g></g><g class="watermark-group" style="opacity:0.040000010281801224"><path class="watermark-path" d="M129.52,370.3a11.88,11.88,0,0,1,2.58,5.58,12,12,0,0,1,.11,3,11.81,11.81,0,0,1-.64,2.93,12.34,12.34,0,0,1-1.41,2.72,11.65,11.65,0,0,1-2.13,2.32,12,12,0,0,1-2.64,1.69,13,13,0,0,1-2.91.9,12.47,12.47,0,0,1-3,.12,12.17,12.17,0,0,1-2.93-.64,11.8,11.8,0,0,1-2.72-1.38,12.19,12.19,0,0,1-4-4.79,11.85,11.85,0,0,1-.89-2.92,12.14,12.14,0,0,1-.13-3,11.54,11.54,0,0,1,.64-2.92,11.67,11.67,0,0,1,3.5-5,11.44,11.44,0,0,1,2.67-1.69,11.64,11.64,0,0,1,2.92-.91,10.71,10.71,0,0,1,3-.12,11.68,11.68,0,0,1,5.66,2,11.7,11.7,0,0,1,2.34,2.12m-1.4,8.76a13,13,0,0,1-1.22,2.32,9.68,9.68,0,0,1-1.81,2,7.44,7.44,0,0,1-2.38,1.37,6.17,6.17,0,0,1-5.11-.46,8.73,8.73,0,0,1-3.85-4.58,6.69,6.69,0,0,1-.34-2.66,6.09,6.09,0,0,1,.77-2.47,7.15,7.15,0,0,1,1.75-2.11,9.58,9.58,0,0,1,1.09-.81,8.23,8.23,0,0,1,1.12-.63,8.14,8.14,0,0,1,1.19-.46,12.71,12.71,0,0,1,1.32-.37l2,2.38a12.83,12.83,0,0,0-1.56.17,7.86,7.86,0,0,0-1.23.32,4.5,4.5,0,0,0-1,.49,6.41,6.41,0,0,0-.93.67,4.49,4.49,0,0,0-1.15,1.39,3.87,3.87,0,0,0-.45,1.58,4.12,4.12,0,0,0,.26,1.63,6.11,6.11,0,0,0,2.36,2.82,4.43,4.43,0,0,0,1.57.53,3.91,3.91,0,0,0,1.62-.17,4.71,4.71,0,0,0,1.57-.89,10.5,10.5,0,0,0,.83-.79,5.71,5.71,0,0,0,.65-.93,10.13,10.13,0,0,0,.54-1.14,12.24,12.24,0,0,0,.44-1.49l2,2.33m-14.46,4.55a8.86,8.86,0,0,0,2.78,2.22,9,9,0,0,0,3.29.94,9.15,9.15,0,0,0,3.39-.37,8.68,8.68,0,0,0,3.11-1.69,8.8,8.8,0,0,0,2.22-2.78,9.15,9.15,0,0,0,1-3.29,8.95,8.95,0,0,0-4.83-8.76,9,9,0,0,0-6.73-.57,9,9,0,0,0-5.33,4.47,8.94,8.94,0,0,0-.57,6.71,8.76,8.76,0,0,0,1.7,3.12"></path><path class="watermark-path" d="M147,349c-.48.12-1.09.31-1.82.57a24.37,24.37,0,0,0-2.4,1A28.35,28.35,0,0,0,140,352a20.72,20.72,0,0,0-2.71,1.94c-.7.59-1.28,1.11-1.74,1.57a15.07,15.07,0,0,0-1.1,1.22,4.09,4.09,0,0,0-.59.92,2.32,2.32,0,0,0-.22.64,1.16,1.16,0,0,0,0,.47,1.83,1.83,0,0,0,.18.29,1.15,1.15,0,0,0,1,.37,5.54,5.54,0,0,0,1.51-.38q.87-.35,1.95-.9l2.26-1.18q1.2-.65,2.49-1.29c.87-.44,1.73-.83,2.59-1.17a18.94,18.94,0,0,1,2.6-.81,9.27,9.27,0,0,1,2.46-.29,6.25,6.25,0,0,1,2.24.49,5.12,5.12,0,0,1,1.89,1.47,6.35,6.35,0,0,1,1.41,2.61,6,6,0,0,1,.09,2.6,8.3,8.3,0,0,1-.9,2.52,17.79,17.79,0,0,1-1.62,2.37,23.92,23.92,0,0,1-2,2.15c-.72.67-1.41,1.29-2.09,1.87a33.79,33.79,0,0,1-5.33,3.7,32.29,32.29,0,0,1-4.91,2.28l-3.61-4.3a21.38,21.38,0,0,0,5.39-1.87,27.2,27.2,0,0,0,5.4-3.56,21.59,21.59,0,0,0,2.38-2.27,8.67,8.67,0,0,0,1.18-1.7,2.32,2.32,0,0,0,.27-1.19,1.34,1.34,0,0,0-.28-.74,1.21,1.21,0,0,0-1-.42,4.32,4.32,0,0,0-1.55.34,15.77,15.77,0,0,0-2,.88c-.72.37-1.48.77-2.27,1.21l-2.45,1.3c-.85.45-1.7.85-2.56,1.21a22.37,22.37,0,0,1-2.54.86,10,10,0,0,1-2.43.32,5.76,5.76,0,0,1-2.2-.45,5,5,0,0,1-1.89-1.45,6.12,6.12,0,0,1-1.31-2.41,6,6,0,0,1-.1-2.41,8.28,8.28,0,0,1,.81-2.38,14.06,14.06,0,0,1,1.49-2.24,22.37,22.37,0,0,1,1.85-2.05q1-1,2-1.77c.7-.59,1.44-1.15,2.23-1.7s1.62-1.06,2.44-1.53,1.63-.91,2.43-1.3,1.58-.75,2.3-1L147,349"></path><path class="watermark-path" d="M186.76,337.57l-10.6-12.63,3.92,18.24-4.66,3.91-17.27-7,10.6,12.63-4.86,4.07-15.09-18,6.59-5.54,18.69,7.52-4.15-19.71,6.57-5.52,15.09,18-4.83,4.05"></path><path class="watermark-path" d="M208.84,313.24l-10,8.42,1.16,4.82L194.56,331l-5.68-25.89,5.42-4.55,24.51,10.09-5.42,4.55-4.55-2m-11.23,3.45,6.57-5.52-8.83-3.87,2.26,9.39"></path><path class="watermark-path" d="M227.49,281.38c-.48.12-1.09.31-1.82.57a24.37,24.37,0,0,0-2.4,1,26.11,26.11,0,0,0-2.7,1.47,20.72,20.72,0,0,0-2.71,1.94c-.7.59-1.28,1.11-1.74,1.57a13.39,13.39,0,0,0-1.1,1.22,4.29,4.29,0,0,0-.59.91,2.48,2.48,0,0,0-.22.65,1.16,1.16,0,0,0,0,.47,1.83,1.83,0,0,0,.18.29,1.15,1.15,0,0,0,1,.37,5.54,5.54,0,0,0,1.51-.38q.87-.34,2-.9l2.26-1.18q1.2-.64,2.49-1.29c.87-.44,1.73-.83,2.59-1.17a18.94,18.94,0,0,1,2.6-.81,9.27,9.27,0,0,1,2.46-.29,6.08,6.08,0,0,1,2.24.49,5.09,5.09,0,0,1,1.89,1.46,6.47,6.47,0,0,1,1.41,2.61,6.07,6.07,0,0,1,.09,2.61,8.3,8.3,0,0,1-.9,2.52,16.32,16.32,0,0,1-1.63,2.36,21.41,21.41,0,0,1-2,2.16c-.72.67-1.41,1.29-2.1,1.86a33.36,33.36,0,0,1-5.32,3.71,31.92,31.92,0,0,1-4.92,2.28l-3.6-4.3a21.38,21.38,0,0,0,5.39-1.87,27.2,27.2,0,0,0,5.4-3.56,21.59,21.59,0,0,0,2.38-2.27,8.67,8.67,0,0,0,1.18-1.7A2.32,2.32,0,0,0,231,293a1.34,1.34,0,0,0-.28-.74,1.21,1.21,0,0,0-1-.42,4.32,4.32,0,0,0-1.55.34,16.54,16.54,0,0,0-2,.88c-.71.37-1.47.77-2.26,1.21l-2.46,1.3c-.84.44-1.7.85-2.55,1.21a24.53,24.53,0,0,1-2.54.86A10,10,0,0,1,214,298a5.76,5.76,0,0,1-2.2-.45,5,5,0,0,1-1.89-1.45,6.12,6.12,0,0,1-1.31-2.41,5.78,5.78,0,0,1-.1-2.41,8,8,0,0,1,.81-2.38,14.61,14.61,0,0,1,1.49-2.25,22.26,22.26,0,0,1,1.85-2q1-1,2-1.77c.7-.59,1.44-1.15,2.23-1.7s1.62-1.06,2.44-1.53,1.63-.91,2.43-1.31,1.58-.74,2.3-1l3.5,4.16"></path><path class="watermark-path" d="M261.64,274.74l-6.29-7.5L243,277.61l6.3,7.5-4.86,4.07-15.09-18,4.85-4.08,5.49,6.55L252,263.3l-5.49-6.55,4.86-4.07,15.09,18-4.86,4.08"></path><path class="watermark-path" d="M272.18,265.9l-15.09-18,4.86-4.08,15.09,18-4.86,4.08"></path><path class="watermark-path" d="M299.65,242.85l-22.51-2.18L287.51,253l-4.85,4.08-15.1-18,5.28-4.43,22.56,2.22L285,224.5l4.83-4.06,15.09,18-5.26,4.42"></path><path class="watermark-path" d="M306.68,205.52a31.88,31.88,0,0,1,5.29-3.66,34.48,34.48,0,0,1,5.14-2.35l3.69,4.39a20.77,20.77,0,0,0-2.37.61,20.47,20.47,0,0,0-2.61,1,25.12,25.12,0,0,0-2.76,1.49,23.9,23.9,0,0,0-2.8,2,20.42,20.42,0,0,0-2.8,2.77,12.77,12.77,0,0,0-1.64,2.52,7,7,0,0,0-.68,2.24,6,6,0,0,0,.66,3.64,8.16,8.16,0,0,0,.94,1.38,9.12,9.12,0,0,0,1.08,1.07,6.39,6.39,0,0,0,1.47.91,6.73,6.73,0,0,0,1.88.48,6.54,6.54,0,0,0,2.28-.18,11.67,11.67,0,0,0,2.74-1.07,19.38,19.38,0,0,0,3.18-2.22c.57-.48,1.06-.92,1.46-1.31a14.57,14.57,0,0,0,1-1.13,11.46,11.46,0,0,0,.81-1.05l.74-1.09-1.82-2.17-5.45,4.57-3.31-3.94,10.31-8.65,7.71,9.19a29,29,0,0,1-1.67,2.43q-1,1.26-2.1,2.52c-.74.84-1.5,1.65-2.3,2.44s-1.58,1.5-2.33,2.14a31,31,0,0,1-3.59,2.61,22.55,22.55,0,0,1-3.64,1.83,15.64,15.64,0,0,1-3.63.89,10.72,10.72,0,0,1-3.49-.15,10.45,10.45,0,0,1-3.28-1.33,12.54,12.54,0,0,1-3-2.67,12,12,0,0,1-2.08-3.44,10.45,10.45,0,0,1-.71-3.5,11.14,11.14,0,0,1,.51-3.51,15.72,15.72,0,0,1,1.56-3.43,21.62,21.62,0,0,1,2.42-3.28,30.3,30.3,0,0,1,3.15-3"></path><path class="watermark-path" d="M336.91,211.59l-15.1-18,4.86-4.08,11.79,14,13.13-11,3.31,3.94-18,15.1"></path><path class="watermark-path" d="M374.54,164.71a12.28,12.28,0,0,1,2.59,4.81,10.44,10.44,0,0,1,0,5,14.62,14.62,0,0,1-2.33,5,25.55,25.55,0,0,1-4.56,4.85,26.07,26.07,0,0,1-5.6,3.67,14.79,14.79,0,0,1-5.38,1.43,10.43,10.43,0,0,1-4.94-.89,13.24,13.24,0,0,1-6.87-8.18,10.48,10.48,0,0,1,0-5,14.51,14.51,0,0,1,2.36-5,25.23,25.23,0,0,1,4.57-4.89,25,25,0,0,1,5.59-3.64,14.45,14.45,0,0,1,5.35-1.43,10.31,10.31,0,0,1,4.93.92,12.22,12.22,0,0,1,4.28,3.38m-4.91,4.11a8.36,8.36,0,0,0-2-1.72,5.5,5.5,0,0,0-2.65-.85,7.72,7.72,0,0,0-3.32.57,14.49,14.49,0,0,0-4,2.52,16.72,16.72,0,0,0-2.38,2.4,10.15,10.15,0,0,0-1.39,2.24,6.71,6.71,0,0,0-.56,2.1,5.69,5.69,0,0,0,.1,1.9,6.21,6.21,0,0,0,.61,1.69,9.85,9.85,0,0,0,1,1.44,10.48,10.48,0,0,0,1.26,1.23,6.67,6.67,0,0,0,1.57.92,6.1,6.1,0,0,0,1.85.41,6.8,6.8,0,0,0,2.15-.2,11.06,11.06,0,0,0,2.45-1,17.67,17.67,0,0,0,2.77-1.94,14.39,14.39,0,0,0,3.18-3.52,7.74,7.74,0,0,0,1.14-3.17,5.54,5.54,0,0,0-.37-2.74,8.52,8.52,0,0,0-1.36-2.3"></path><path class="watermark-path" d="M382.66,141.76A32.3,32.3,0,0,1,388,138.1a34.12,34.12,0,0,1,5.15-2.35l3.69,4.4a19.62,19.62,0,0,0-2.37.6,22.08,22.08,0,0,0-2.61,1,26,26,0,0,0-2.77,1.49,23.9,23.9,0,0,0-2.8,2,21,21,0,0,0-2.8,2.78,13.19,13.19,0,0,0-1.64,2.51,7.29,7.29,0,0,0-.68,2.24,6.36,6.36,0,0,0,.06,2,5.8,5.8,0,0,0,.61,1.68,8.12,8.12,0,0,0,.93,1.38,9.16,9.16,0,0,0,1.08,1.08,6.56,6.56,0,0,0,1.48.9,6,6,0,0,0,1.87.48,6.76,6.76,0,0,0,2.28-.17,12,12,0,0,0,2.74-1.08,18.57,18.57,0,0,0,3.18-2.22c.58-.48,1.06-.92,1.46-1.31s.75-.77,1.05-1.12.57-.72.81-1.06l.73-1.09-1.82-2.17-5.45,4.57-3.3-3.94,10.3-8.65,7.71,9.19a29,29,0,0,1-1.67,2.43q-1,1.26-2.1,2.52c-.73.84-1.5,1.66-2.3,2.44s-1.57,1.5-2.33,2.14a31,31,0,0,1-3.59,2.61,22.15,22.15,0,0,1-3.64,1.83,15.56,15.56,0,0,1-3.62.89,11,11,0,0,1-3.49-.14,10.84,10.84,0,0,1-3.28-1.33,12.82,12.82,0,0,1-3-2.68,12.12,12.12,0,0,1-2.08-3.43A10.71,10.71,0,0,1,375,155a11.18,11.18,0,0,1,.51-3.51,15.51,15.51,0,0,1,1.57-3.43,21.44,21.44,0,0,1,2.42-3.28,30.19,30.19,0,0,1,3.14-3"></path><path class="watermark-path" d="M428.63,119.31a12.26,12.26,0,0,1,2.59,4.82,10.44,10.44,0,0,1,0,5,14.53,14.53,0,0,1-2.34,5,25.29,25.29,0,0,1-4.56,4.86,26,26,0,0,1-5.59,3.67,14.84,14.84,0,0,1-5.38,1.43,10.61,10.61,0,0,1-4.95-.89,12.15,12.15,0,0,1-4.3-3.37,12,12,0,0,1-2.56-4.81,10.48,10.48,0,0,1,0-5,14.39,14.39,0,0,1,2.35-5,27.89,27.89,0,0,1,10.16-8.53,14.49,14.49,0,0,1,5.36-1.43,10.27,10.27,0,0,1,4.92.92,12.21,12.21,0,0,1,4.28,3.37m-4.91,4.12a8.17,8.17,0,0,0-2-1.72,5.58,5.58,0,0,0-2.65-.86,7.86,7.86,0,0,0-3.31.58,14.49,14.49,0,0,0-4,2.52,16.21,16.21,0,0,0-2.38,2.4,9.85,9.85,0,0,0-1.4,2.24,7,7,0,0,0-.56,2.1,6,6,0,0,0,.1,1.9,6.23,6.23,0,0,0,.62,1.69,8.49,8.49,0,0,0,1,1.44,9.18,9.18,0,0,0,1.26,1.23,6.67,6.67,0,0,0,1.57.92,6,6,0,0,0,1.84.41,6.86,6.86,0,0,0,2.16-.2,11.26,11.26,0,0,0,2.45-1,17.62,17.62,0,0,0,2.76-1.94,14.67,14.67,0,0,0,3.19-3.52,7.71,7.71,0,0,0,1.13-3.17,5.53,5.53,0,0,0-.36-2.74,8.55,8.55,0,0,0-1.37-2.3"></path></g><rect data-element-id="element-id-26563" stroke-width="2" fill="transparent" class="invisible-element-box grouping-element" x="65" y="160" width="176" height="150" data-element-name="isIcon"></rect><rect data-element-id="element-id-28099" stroke-width="2" fill="transparent" class="invisible-element-box individual-element" x="65" y="160" width="176" height="150"></rect><rect data-element-id="element-id-50838" stroke-width="2" fill="transparent" class="invisible-element-box grouping-element" x="294" y="165" width="191" height="127" data-element-name="isPrimaryText"></rect><rect data-element-id="element-id-21164" stroke-width="2" fill="transparent" class="invisible-element-box individual-element" x="294" y="165" width="83" height="98"></rect><rect data-element-id="element-id-54639" stroke-width="2" fill="transparent" class="invisible-element-box individual-element" x="402" y="194" width="83" height="98"></rect><rect data-element-id="element-id-32959" stroke-width="2" fill="transparent" class="invisible-element-box grouping-element" x="294" y="278" width="191" height="27" data-element-name="isSecondaryText"></rect><rect data-element-id="element-id-5603" stroke-width="2" fill="transparent" class="invisible-element-box individual-element" x="376" y="165" width="34" height="98"></rect><rect data-element-id="element-id-67029" stroke-width="2" fill="transparent" class="invisible-element-box individual-element" x="294" y="278" width="191" height="1"></rect><rect data-element-id="element-id-49706" stroke-width="2" fill="transparent" class="invisible-element-box individual-element" x="327" y="295" width="6" height="10"></rect><rect data-element-id="element-id-51271" stroke-width="2" fill="transparent" class="invisible-element-box individual-element" x="415" y="295" width="6" height="10"></rect><rect data-element-id="element-id-29651" stroke-width="2" fill="transparent" class="invisible-element-box individual-element" x="435" y="295" width="6" height="10"></rect><rect data-element-id="element-id-92494" stroke-width="2" fill="transparent" class="invisible-element-box individual-element" x="471" y="295" width="6" height="10"></rect><rect data-element-id="element-id-2317" stroke-width="2" fill="transparent" class="invisible-element-box individual-element" x="295" y="295" width="6" height="9"></rect><rect data-element-id="element-id-75734" stroke-width="2" fill="transparent" class="invisible-element-box individual-element" x="304" y="295" width="6" height="9"></rect><rect data-element-id="element-id-54102" stroke-width="2" fill="transparent" class="invisible-element-box individual-element" x="313" y="295" width="6" height="9"></rect><rect data-element-id="element-id-59267" stroke-width="2" fill="transparent" class="invisible-element-box individual-element" x="337" y="295" width="6" height="9"></rect><rect data-element-id="element-id-49389" stroke-width="2" fill="transparent" class="invisible-element-box individual-element" x="354" y="295" width="6" height="9"></rect><rect data-element-id="element-id-57417" stroke-width="2" fill="transparent" class="invisible-element-box individual-element" x="363" y="295" width="6" height="9"></rect><rect data-element-id="element-id-76201" stroke-width="2" fill="transparent" class="invisible-element-box individual-element" x="379" y="295" width="6" height="9"></rect><rect data-element-id="element-id-41320" stroke-width="2" fill="transparent" class="invisible-element-box individual-element" x="389" y="295" width="6" height="9"></rect><rect data-element-id="element-id-25517" stroke-width="2" fill="transparent" class="invisible-element-box individual-element" x="405" y="295" width="6" height="9"></rect><rect data-element-id="element-id-18190" stroke-width="2" fill="transparent" class="invisible-element-box individual-element" x="425" y="295" width="6" height="9"></rect><rect data-element-id="element-id-6731" stroke-width="2" fill="transparent" class="invisible-element-box individual-element" x="445" y="295" width="6" height="9"></rect><rect data-element-id="element-id-1667" stroke-width="2" fill="transparent" class="invisible-element-box individual-element" x="462" y="295" width="6" height="9"></rect><rect data-element-id="element-id-40740" stroke-width="2" fill="transparent" class="invisible-element-box individual-element" x="455" y="295" width="5" height="9"></rect><rect data-element-id="element-id-71756" stroke-width="2" fill="transparent" class="invisible-element-box individual-element" x="348" y="295" width="2" height="9"></rect><rect data-element-id="element-id-6318" stroke-width="2" fill="transparent" class="invisible-element-box individual-element" x="373" y="295" width="2" height="9"></rect></svg>