<svg xmlns:mydata="http://www.w3.org/2000/svg" mydata:contrastcolor="11111f" mydata:template="Contrast" mydata:presentation="2.5" mydata:layouttype="undefined" mydata:specialfontid="undefined" mydata:id1="799" mydata:id2="052" mydata:companyname="DIY Pet Shipping" mydata:companytagline="" version="1.1" xmlns="http://www.w3.org/2000/svg" xmlns:xlink="http://www.w3.org/1999/xlink" viewBox="0 0 550 470" style="height: 787px;"><g fill="#c1a01e" fill-rule="none" stroke="none" stroke-width="1" stroke-linecap="butt" stroke-linejoin="miter" stroke-miterlimit="10" stroke-dasharray="" stroke-dashoffset="0" font-family="none" font-weight="none" font-size="none" text-anchor="none" style="mix-blend-mode: normal"><g data-paper-data="{&quot;isGlobalGroup&quot;:true,&quot;bounds&quot;:{&quot;x&quot;:65.00000000000001,&quot;y&quot;:213.13762976413042,&quot;width&quot;:420,&quot;height&quot;:43.724740471739125}}"><g data-paper-data="{&quot;isPrimaryText&quot;:true}" fill-rule="nonzero" id="element-id-90295"><path d="M164.73334,221.05249l-0.40298,2.82085h-9.85057c-2.05966,0 -3.4477,0.04478 -4.11933,0.1791c-0.71641,0.08955 -1.29848,0.3582 -1.65669,0.71641c-0.3582,0.3582 -0.62685,0.94028 -0.85073,1.74624c-0.13433,0.58208 -0.31343,1.79101 -0.58208,3.67158c-0.1791,1.07461 -0.40298,2.68652 -0.71641,4.83573c-0.26865,2.10444 -0.49253,3.67158 -0.62685,4.74618c-0.1791,1.43281 -0.31343,2.37309 -0.40298,2.9104c-0.08955,1.29848 0.04478,2.14922 0.40298,2.59697c0.26865,0.26865 0.71641,0.49253 1.34326,0.62685c0.62685,0.08955 1.97011,0.1791 4.11933,0.1791h9.85057c2.05966,0 3.4477,-0.04478 4.07455,-0.13433c0.67163,-0.13433 1.16416,-0.31343 1.52236,-0.5373c0.49253,-0.3582 0.85073,-1.02983 1.07461,-1.92534c0.1791,-0.58208 0.3582,-1.83579 0.58208,-3.71635l0.22388,-1.65669l3.2686,-23.37272c-1.92534,0 -3.17905,0 -3.8059,0.08955c-0.85073,0.08955 -1.47759,0.3582 -1.88056,0.71641c-0.3582,0.31343 -0.67163,0.89551 -0.89551,1.70146c-0.1791,0.62685 -0.40298,1.88056 -0.67163,3.8059zM155.15142,230.18665c0.08955,0 0.1791,0 0.31343,0h7.97001l-1.07461,7.92523c-0.08955,0.44775 -0.13433,0.71641 -0.22388,0.89551c-0.04478,0.26865 -0.13433,0.44775 -0.26865,0.5373c-0.08955,0.08955 -0.22388,0.13433 -0.40298,0.1791c-0.1791,0 -0.5373,0.04478 -1.16416,0.04478h-8.01478l1.11938,-7.92523c0.08955,-0.44775 0.13433,-0.76118 0.13433,-0.89551c0.08955,-0.26865 0.13433,-0.40298 0.22388,-0.49253c0.08955,-0.13433 0.26865,-0.22388 0.44775,-0.22388c0.1791,-0.04478 0.49253,-0.04478 0.94028,-0.04478z" data-paper-data="{&quot;glyphName&quot;:&quot;d&quot;,&quot;glyphIndex&quot;:0,&quot;firstGlyphOfWord&quot;:true,&quot;word&quot;:1}" id="element-id-91570"></path><path d="M182.24049,214.73917c-2.10444,0 -3.49247,0.04478 -4.11933,0.13433c-0.71641,0.08955 -1.29848,0.3582 -1.65669,0.71641c-0.3582,0.3582 -0.67163,1.02983 -0.89551,2.01489c-0.13433,0.5373 -0.31343,1.70146 -0.58208,3.40292l-0.13433,1.20893h6.3581zM174.62868,223.87333l-1.52236,10.83563l-1.61191,11.37293c2.23877,0 3.67158,-0.08955 4.29843,-0.22388c0.85073,-0.1791 1.43281,-0.5373 1.79101,-1.07461c0.26865,-0.40298 0.49253,-0.98506 0.62685,-1.79101c0.13433,-0.58208 0.31343,-1.65669 0.5373,-3.17905l0.94028,-6.8954l1.29848,-9.04461z" data-paper-data="{&quot;glyphName&quot;:&quot;i&quot;,&quot;glyphIndex&quot;:1,&quot;word&quot;:1}" id="element-id-71261"></path><path d="M184.3897,223.87333l-0.89551,6.26854l-1.34326,9.67147c-0.22388,1.70146 -0.3582,2.86562 -0.3582,3.4477c-0.04478,0.89551 0.04478,1.52236 0.31343,1.92534c0.26865,0.3582 0.85073,0.62685 1.65669,0.76118c0.62685,0.08955 1.92534,0.13433 3.89545,0.13433h9.85057c-0.08955,0.71641 -0.13433,1.20893 -0.22388,1.47759c-0.04478,0.3582 -0.13433,0.62685 -0.22388,0.85073c-0.13433,0.22388 -0.40298,0.40298 -0.76118,0.49253c-0.26865,0.04478 -0.80596,0.08955 -1.70146,0.08955h-7.34315c-1.61191,0 -2.68652,0 -3.22382,0.08955c-0.94028,0.08955 -1.65669,0.31343 -2.10444,0.67163c-0.44775,0.3582 -0.85073,1.07461 -1.16416,2.10444c-0.13433,0.5373 -0.40298,1.70146 -0.76118,3.4477h6.3581h9.85057c1.83579,0 3.04472,-0.04478 3.6268,-0.08955c1.07461,-0.13433 1.79101,-0.40298 2.19399,-0.85073c0.3582,-0.40298 0.67163,-1.02983 0.85073,-1.83579c0.1791,-0.62685 0.3582,-1.79101 0.58208,-3.53725l0.40298,-2.9104l0.89551,-6.26854l1.34326,-9.67147c0.1791,-1.16416 0.26865,-1.97011 0.31343,-2.41787c0.13433,-1.34326 0.08955,-2.28354 -0.13433,-2.73129c-0.22388,-0.5373 -0.85073,-0.89551 -1.83579,-1.02983c-0.58208,-0.08955 -1.83579,-0.08955 -3.8059,-0.08955l-0.89551,6.26854l-1.11938,8.05956c-0.04478,0.31343 -0.08955,0.5373 -0.13433,0.71641c-0.04478,0.1791 -0.08955,0.31343 -0.13433,0.40298c-0.08955,0.1791 -0.22388,0.31343 -0.44775,0.40298c-0.13433,0.04478 -0.5373,0.08955 -1.20893,0.08955h-8.14911l1.34326,-9.67147c0.26865,-2.05966 0.40298,-3.2686 0.40298,-3.71635c0.04478,-0.94028 -0.13433,-1.56714 -0.49253,-1.88056c-0.3582,-0.40298 -1.20893,-0.62685 -2.50742,-0.67163c-0.49253,0 -1.47759,0 -2.9104,0z" data-paper-data="{&quot;glyphName&quot;:&quot;y&quot;,&quot;glyphIndex&quot;:2,&quot;lastGlyphOfWord&quot;:true,&quot;word&quot;:1}" id="element-id-64810"></path><path d="M226.4785,248.90274l0.40298,-2.82085h9.85057c2.10444,0 3.49247,-0.04478 4.11933,-0.13433c0.76118,-0.13433 1.29848,-0.40298 1.65669,-0.76118c0.3582,-0.3582 0.67163,-0.94028 0.85073,-1.74624c0.1791,-0.58208 0.3582,-1.79101 0.58208,-3.6268c0,0 0.44775,-3.22382 1.34326,-9.58192c0.22388,-1.43281 0.3582,-2.41787 0.40298,-2.9104c0.13433,-1.34326 0,-2.19399 -0.40298,-2.64174c-0.26865,-0.31343 -0.71641,-0.49253 -1.34326,-0.58208c-0.58208,-0.13433 -1.97011,-0.1791 -4.11933,-0.1791h-9.85057c-2.05966,0 -3.40292,0.04478 -4.07455,0.13433c-0.62685,0.08955 -1.16416,0.26865 -1.52236,0.5373c-0.44775,0.31343 -0.80596,0.94028 -1.07461,1.88056c-0.13433,0.58208 -0.31343,1.83579 -0.58208,3.76113l-0.22388,1.65669l-3.2686,23.37272c1.97011,0 3.22382,-0.04478 3.8059,-0.13433c0.89551,-0.08955 1.52236,-0.31343 1.88056,-0.67163c0.40298,-0.3582 0.71641,-0.94028 0.89551,-1.74624c0.1791,-0.62685 0.40298,-1.88056 0.67163,-3.8059zM236.06042,239.81335c-0.08955,0 -0.1791,0 -0.31343,0h-7.97001v-0.04478l1.07461,-7.88046c0.08955,-0.44775 0.1791,-0.76118 0.22388,-0.89551c0.08955,-0.26865 0.1791,-0.44775 0.26865,-0.5373c0.08955,-0.08955 0.22388,-0.1791 0.40298,-0.1791c0.1791,-0.04478 0.58208,-0.04478 1.16416,-0.04478h8.01478l-1.11938,7.92523c-0.04478,0.44775 -0.08955,0.71641 -0.13433,0.89551c-0.04478,0.1791 -0.13433,0.3582 -0.22388,0.49253c-0.08955,0.08955 -0.22388,0.13433 -0.44775,0.22388c-0.1791,0 -0.49253,0.04478 -0.94028,0.04478z" data-paper-data="{&quot;glyphName&quot;:&quot;p&quot;,&quot;glyphIndex&quot;:3,&quot;firstGlyphOfWord&quot;:true,&quot;word&quot;:2}" id="element-id-88881"></path><path d="M255.71679,223.87333c-2.05966,0 -3.40292,0.04478 -4.02978,0.13433c-0.80596,0.08955 -1.43281,0.3582 -1.88056,0.76118c-0.40298,0.3582 -0.71641,1.11938 -0.94028,2.19399c-0.08955,0.5373 -0.26865,1.56714 -0.5373,3.17905l-1.34326,9.58192c-0.22388,1.79101 -0.3582,2.95517 -0.40298,3.58203c0,0.76118 0.08955,1.34326 0.26865,1.70146c0.26865,0.40298 0.71641,0.67163 1.34326,0.85073c0.62685,0.13433 2.01489,0.1791 4.25366,0.1791h16.25344c0,-1.79101 0,-2.95517 -0.08955,-3.49247c-0.04478,-0.98506 -0.22388,-1.61191 -0.58208,-1.97011c-0.26865,-0.3582 -0.76118,-0.58208 -1.47759,-0.67163c-0.49253,-0.08955 -1.61191,-0.13433 -3.35815,-0.13433h-8.73119h-1.11938c0.08955,-0.49253 0.13433,-0.80596 0.13433,-0.94028c0.04478,-0.26865 0.08955,-0.44775 0.1791,-0.5373c0.08955,-0.08955 0.22388,-0.13433 0.3582,-0.13433c0.13433,-0.04478 0.3582,-0.04478 0.67163,-0.04478h8.77596c1.97011,0 3.22382,-0.04478 3.85068,-0.13433c0.89551,-0.08955 1.52236,-0.3582 1.92534,-0.71641c0.3582,-0.40298 0.67163,-1.02983 0.85073,-1.88056c0.1791,-0.58208 0.3582,-1.74624 0.58208,-3.53725l0.26865,-1.70146c0.1791,-1.43281 0.31343,-2.37309 0.3582,-2.86562c0.13433,-1.47759 -0.04478,-2.41787 -0.58208,-2.82085c-0.3582,-0.26865 -1.02983,-0.44775 -2.01489,-0.5373c-0.5373,-0.04478 -1.61191,-0.04478 -3.22382,-0.04478zM255.80634,230.18665h7.70135h1.02983c-0.04478,0.49253 -0.08955,0.85073 -0.13433,1.02983c0,0.1791 -0.04478,0.26865 -0.13433,0.3582c-0.08955,0.08955 -0.26865,0.1791 -0.5373,0.22388c-0.08955,0 -0.22388,0 -0.44775,0h-7.70135h-1.11938c0.08955,-0.5373 0.13433,-0.85073 0.13433,-0.98506c0.08955,-0.1791 0.13433,-0.31343 0.1791,-0.40298c0.08955,-0.08955 0.1791,-0.1791 0.26865,-0.1791c0.08955,-0.04478 0.3582,-0.04478 0.76118,-0.04478z" data-paper-data="{&quot;glyphName&quot;:&quot;e&quot;,&quot;glyphIndex&quot;:4,&quot;word&quot;:2}" id="element-id-5857"></path><path d="M282.04467,214.73917l-1.25371,9.17894c-1.92534,0 -3.17905,0 -3.8059,0.08955c-0.89551,0.08955 -1.52236,0.3582 -1.97011,0.71641c-0.40298,0.40298 -0.71641,1.16416 -0.98506,2.28354c-0.08955,0.5373 -0.26865,1.61191 -0.49253,3.22382h6.3581l-0.22388,1.61191l-0.89551,6.31332l-0.22388,1.65669c-0.26865,1.65669 -0.44775,2.77607 -0.5373,3.35815c-0.04478,0.89551 0.04478,1.56714 0.26865,1.97011c0.31343,0.44775 1.02983,0.76118 2.19399,0.89551c0.62685,0 1.79101,0.04478 3.53725,0.04478h3.53725c1.92534,0 3.17905,-0.04478 3.76113,-0.08955c0.89551,-0.13433 1.56714,-0.3582 1.97011,-0.71641c0.3582,-0.3582 0.67163,-0.98506 0.89551,-1.79101c0.1791,-0.62685 0.3582,-1.83579 0.58208,-3.67158h-6.3581h-3.49247l0.22388,-1.65669l0.89551,-6.31332l0.22388,-1.61191h3.49247c1.88056,0 3.0895,-0.04478 3.67158,-0.08955c0.89551,-0.13433 1.56714,-0.3582 1.97011,-0.62685c0.40298,-0.3582 0.71641,-0.89551 0.94028,-1.61191c0.1791,-0.62685 0.40298,-1.92534 0.67163,-3.985h-6.3581h-3.49247l0.40298,-2.86562c0.26865,-1.56714 0.40298,-2.55219 0.40298,-2.95517c0.13433,-0.98506 0.08955,-1.70146 -0.08955,-2.14922c-0.26865,-0.62685 -0.98506,-0.98506 -2.23877,-1.07461c-0.67163,-0.08955 -1.88056,-0.13433 -3.58203,-0.13433z" data-paper-data="{&quot;glyphName&quot;:&quot;t&quot;,&quot;glyphIndex&quot;:5,&quot;lastGlyphOfWord&quot;:true,&quot;word&quot;:2}" id="element-id-98503"></path><path d="M312.40234,230.18665l-0.22388,1.65669c-0.26865,1.74624 -0.44775,2.9104 -0.5373,3.53725c-0.04478,0.98506 0.08955,1.70146 0.44775,2.05966c0.3582,0.31343 0.94028,0.5373 1.83579,0.62685c0.62685,0.04478 1.88056,0.08955 3.76113,0.08955h9.85057c-0.04478,0.40298 -0.08955,0.67163 -0.13433,0.85073c0,0.22388 -0.08955,0.40298 -0.1791,0.5373c-0.08955,0.08955 -0.22388,0.13433 -0.40298,0.22388c-0.13433,0 -0.49253,0 -1.02983,0h-8.37298h-6.3581c-0.26865,1.92534 -0.40298,3.17905 -0.40298,3.8059c0,0.71641 0.13433,1.25371 0.3582,1.61191c0.22388,0.31343 0.62685,0.5373 1.16416,0.67163c0.62685,0.13433 2.05966,0.22388 4.38798,0.22388h9.85057c2.28354,0 3.76113,-0.08955 4.38798,-0.22388c0.67163,-0.13433 1.16416,-0.40298 1.52236,-0.80596c0.26865,-0.31343 0.44775,-0.71641 0.62685,-1.34326c0.1791,-0.62685 0.44775,-1.97011 0.71641,-3.94023l0.22388,-1.61191c0.22388,-1.79101 0.3582,-2.95517 0.3582,-3.49247c0.04478,-0.98506 -0.08955,-1.65669 -0.44775,-2.01489c-0.31343,-0.40298 -0.94028,-0.62685 -1.92534,-0.71641c-0.5373,-0.08955 -1.70146,-0.08955 -3.49247,-0.08955h-9.85057c0.08955,-0.49253 0.13433,-0.80596 0.13433,-0.94028c0.04478,-0.1791 0.08955,-0.31343 0.1791,-0.40298c0.08955,-0.13433 0.26865,-0.22388 0.44775,-0.26865c0.1791,-0.04478 0.62685,-0.04478 1.25371,-0.04478h8.10433c1.88056,0 3.0895,-0.04478 3.67158,-0.08955c0.62685,-0.08955 1.07461,-0.1791 1.43281,-0.3582c0.62685,-0.31343 1.07461,-0.89551 1.34326,-1.79101c0.22388,-0.62685 0.49253,-1.97011 0.76118,-4.02978h-6.3581h-9.85057c-1.88056,0 -3.13427,0 -3.76113,0.08955c-0.80596,0.08955 -1.38803,0.26865 -1.79101,0.58208c-0.44775,0.31343 -0.80596,0.94028 -1.02983,1.83579c-0.1791,0.58208 -0.40298,1.83579 -0.67163,3.76113z" data-paper-data="{&quot;glyphName&quot;:&quot;s&quot;,&quot;glyphIndex&quot;:6,&quot;firstGlyphOfWord&quot;:true,&quot;word&quot;:3}" id="element-id-5010"></path><path d="M340.47647,214.69439l-1.56714,11.37293l-1.92534,13.70125l-0.89551,6.26854c1.97011,0 3.22382,-0.04478 3.8059,-0.08955c0.76118,-0.08955 1.34326,-0.26865 1.70146,-0.5373c0.49253,-0.3582 0.85073,-0.98506 1.07461,-1.88056c0.1791,-0.62685 0.40298,-1.88056 0.67163,-3.76113l1.34326,-9.58192h9.85057l-1.34326,9.58192l-0.89551,6.26854c2.14922,0 3.53725,-0.04478 4.1641,-0.13433c0.89551,-0.1791 1.52236,-0.49253 1.88056,-0.94028c0.31343,-0.40298 0.5373,-0.98506 0.71641,-1.79101c0.13433,-0.58208 0.31343,-1.70146 0.49253,-3.40292l1.34326,-9.58192c0.26865,-1.88056 0.40298,-3.13427 0.40298,-3.71635c0.04478,-0.85073 -0.08955,-1.43281 -0.40298,-1.79101c-0.26865,-0.3582 -0.76118,-0.58208 -1.47759,-0.67163c-0.62685,-0.08955 -1.92534,-0.13433 -3.985,-0.13433h-9.85057l0.40298,-2.86562c0.31343,-1.74624 0.49253,-2.9104 0.49253,-3.49247c0.08955,-0.85073 0,-1.47759 -0.26865,-1.83579c-0.26865,-0.44775 -0.80596,-0.71641 -1.65669,-0.85073c-0.62685,-0.08955 -1.97011,-0.13433 -4.07455,-0.13433z" data-paper-data="{&quot;glyphName&quot;:&quot;h&quot;,&quot;glyphIndex&quot;:7,&quot;word&quot;:3}" id="element-id-3793"></path><path d="M372.93857,214.73917c-2.10444,0 -3.49247,0.04478 -4.11933,0.13433c-0.71641,0.08955 -1.29848,0.3582 -1.65669,0.71641c-0.3582,0.3582 -0.67163,1.02983 -0.89551,2.01489c-0.13433,0.5373 -0.31343,1.70146 -0.58208,3.40292l-0.13433,1.20893h6.3581zM365.32677,223.87333l-1.52236,10.83563l-1.61191,11.37293c2.23877,0 3.67158,-0.08955 4.29843,-0.22388c0.85073,-0.1791 1.43281,-0.5373 1.79101,-1.07461c0.26865,-0.40298 0.49253,-0.98506 0.62685,-1.79101c0.13433,-0.58208 0.31343,-1.65669 0.5373,-3.17905l0.94028,-6.8954l1.29848,-9.04461z" data-paper-data="{&quot;glyphName&quot;:&quot;i&quot;,&quot;glyphIndex&quot;:8,&quot;word&quot;:3}" id="element-id-94132"></path><path d="M378.17728,248.90274l0.40298,-2.82085h9.85057c2.10444,0 3.49247,-0.04478 4.11933,-0.13433c0.76118,-0.13433 1.29848,-0.40298 1.65669,-0.76118c0.3582,-0.3582 0.67163,-0.94028 0.85073,-1.74624c0.1791,-0.58208 0.3582,-1.79101 0.58208,-3.6268c0,0 0.44775,-3.22382 1.34326,-9.58192c0.22388,-1.43281 0.3582,-2.41787 0.40298,-2.9104c0.13433,-1.34326 0,-2.19399 -0.40298,-2.64174c-0.26865,-0.31343 -0.71641,-0.49253 -1.34326,-0.58208c-0.58208,-0.13433 -1.97011,-0.1791 -4.11933,-0.1791h-9.85057c-2.05966,0 -3.40292,0.04478 -4.07455,0.13433c-0.62685,0.08955 -1.16416,0.26865 -1.52236,0.5373c-0.44775,0.31343 -0.80596,0.94028 -1.07461,1.88056c-0.13433,0.58208 -0.31343,1.83579 -0.58208,3.76113l-0.22388,1.65669l-3.2686,23.37272c1.97011,0 3.22382,-0.04478 3.8059,-0.13433c0.89551,-0.08955 1.52236,-0.31343 1.88056,-0.67163c0.40298,-0.3582 0.71641,-0.94028 0.89551,-1.74624c0.1791,-0.62685 0.40298,-1.88056 0.67163,-3.8059zM387.7592,239.81335c-0.08955,0 -0.1791,0 -0.31343,0h-7.97001v-0.04478l1.07461,-7.88046c0.08955,-0.44775 0.1791,-0.76118 0.22388,-0.89551c0.08955,-0.26865 0.1791,-0.44775 0.26865,-0.5373c0.08955,-0.08955 0.22388,-0.1791 0.40298,-0.1791c0.1791,-0.04478 0.58208,-0.04478 1.16416,-0.04478h8.01478l-1.11938,7.92523c-0.04478,0.44775 -0.08955,0.71641 -0.13433,0.89551c-0.04478,0.1791 -0.13433,0.3582 -0.22388,0.49253c-0.08955,0.08955 -0.22388,0.13433 -0.44775,0.22388c-0.1791,0 -0.49253,0.04478 -0.94028,0.04478z" data-paper-data="{&quot;glyphName&quot;:&quot;p&quot;,&quot;glyphIndex&quot;:9,&quot;word&quot;:3}" id="element-id-141"></path><path d="M403.96787,248.90274l0.40298,-2.82085h9.85057c2.10444,0 3.49247,-0.04478 4.11933,-0.13433c0.76118,-0.13433 1.29848,-0.40298 1.65669,-0.76118c0.3582,-0.3582 0.67163,-0.94028 0.85073,-1.74624c0.1791,-0.58208 0.3582,-1.79101 0.58208,-3.6268c0,0 0.44775,-3.22382 1.34326,-9.58192c0.22388,-1.43281 0.3582,-2.41787 0.40298,-2.9104c0.13433,-1.34326 0,-2.19399 -0.40298,-2.64174c-0.26865,-0.31343 -0.71641,-0.49253 -1.34326,-0.58208c-0.58208,-0.13433 -1.97011,-0.1791 -4.11933,-0.1791h-9.85057c-2.05966,0 -3.40292,0.04478 -4.07455,0.13433c-0.62685,0.08955 -1.16416,0.26865 -1.52236,0.5373c-0.44775,0.31343 -0.80596,0.94028 -1.07461,1.88056c-0.13433,0.58208 -0.31343,1.83579 -0.58208,3.76113l-0.22388,1.65669l-3.2686,23.37272c1.97011,0 3.22382,-0.04478 3.8059,-0.13433c0.89551,-0.08955 1.52236,-0.31343 1.88056,-0.67163c0.40298,-0.3582 0.71641,-0.94028 0.89551,-1.74624c0.1791,-0.62685 0.40298,-1.88056 0.67163,-3.8059zM413.54979,239.81335c-0.08955,0 -0.1791,0 -0.31343,0h-7.97001v-0.04478l1.07461,-7.88046c0.08955,-0.44775 0.1791,-0.76118 0.22388,-0.89551c0.08955,-0.26865 0.1791,-0.44775 0.26865,-0.5373c0.08955,-0.08955 0.22388,-0.1791 0.40298,-0.1791c0.1791,-0.04478 0.58208,-0.04478 1.16416,-0.04478h8.01478l-1.11938,7.92523c-0.04478,0.44775 -0.08955,0.71641 -0.13433,0.89551c-0.04478,0.1791 -0.13433,0.3582 -0.22388,0.49253c-0.08955,0.08955 -0.22388,0.13433 -0.44775,0.22388c-0.1791,0 -0.49253,0.04478 -0.94028,0.04478z" data-paper-data="{&quot;glyphName&quot;:&quot;p&quot;,&quot;glyphIndex&quot;:10,&quot;word&quot;:3}" id="element-id-37456"></path><path d="M434.81806,214.73917c-2.10444,0 -3.49247,0.04478 -4.11933,0.13433c-0.71641,0.08955 -1.29848,0.3582 -1.65669,0.71641c-0.3582,0.3582 -0.67163,1.02983 -0.89551,2.01489c-0.13433,0.5373 -0.31343,1.70146 -0.58208,3.40292l-0.13433,1.20893h6.3581zM427.20626,223.87333l-1.52236,10.83563l-1.61191,11.37293c2.23877,0 3.67158,-0.08955 4.29843,-0.22388c0.85073,-0.1791 1.43281,-0.5373 1.79101,-1.07461c0.26865,-0.40298 0.49253,-0.98506 0.62685,-1.79101c0.13433,-0.58208 0.31343,-1.65669 0.5373,-3.17905l0.94028,-6.8954l1.29848,-9.04461z" data-paper-data="{&quot;glyphName&quot;:&quot;i&quot;,&quot;glyphIndex&quot;:11,&quot;word&quot;:3}" id="element-id-61337"></path><path d="M436.60907,230.23143l-0.22388,1.61191l-0.89551,6.31332l-0.22388,1.65669l-0.89551,6.26854c1.92534,0 3.17905,-0.04478 3.76113,-0.08955c0.80596,-0.13433 1.43281,-0.3582 1.79101,-0.62685c0.44775,-0.3582 0.80596,-0.89551 0.98506,-1.65669c0.1791,-0.62685 0.44775,-1.92534 0.71641,-3.89545l0.22388,-1.65669l0.89551,-6.31332c0.08955,-0.49253 0.13433,-0.80596 0.13433,-0.94028c0.08955,-0.26865 0.22388,-0.44775 0.31343,-0.5373c0.13433,-0.08955 0.26865,-0.13433 0.44775,-0.13433c0.1791,-0.04478 0.49253,-0.04478 0.98506,0h8.19388l-0.22388,1.61191l-0.89551,6.31332l-0.22388,1.65669l-0.89551,6.26854c2.19399,0 3.6268,-0.08955 4.25366,-0.1791c0.76118,-0.1791 1.29848,-0.44775 1.65669,-0.85073c0.3582,-0.3582 0.58208,-0.94028 0.76118,-1.65669c0.1791,-0.58208 0.3582,-1.79101 0.58208,-3.58203l0.22388,-1.65669l0.89551,-6.31332l0.22388,-1.61191c0.31343,-2.14922 0.44775,-3.53725 0.40298,-4.1641c-0.04478,-0.76118 -0.26865,-1.29848 -0.62685,-1.56714c-0.26865,-0.26865 -0.71641,-0.40298 -1.29848,-0.49253c-0.58208,-0.08955 -1.88056,-0.13433 -3.94023,-0.08955h-1.83579h-6.3581h-1.65669c-1.97011,-0.04478 -3.31337,0 -3.94023,0.08955c-0.71641,0.08955 -1.25371,0.26865 -1.61191,0.5373c-0.44775,0.31343 -0.80596,0.89551 -1.07461,1.74624c-0.13433,0.58208 -0.3582,1.88056 -0.62685,3.94023z" data-paper-data="{&quot;glyphName&quot;:&quot;n&quot;,&quot;glyphIndex&quot;:12,&quot;word&quot;:3}" id="element-id-25263"></path><path d="M462.13101,230.23143c0,0.04478 -0.1791,1.56714 -0.62685,4.61186c-0.08955,0.5373 -0.1791,1.34326 -0.3582,2.46264c-0.13433,1.07461 -0.26865,1.92534 -0.3582,2.50742c-0.1791,1.43281 -0.26865,2.41787 -0.3582,2.95517c-0.08955,1.07461 0,1.79101 0.22388,2.23877c0.26865,0.49253 0.85073,0.80596 1.74624,0.98506c0.62685,0.04478 1.92534,0.08955 3.89545,0.08955h9.85057c-0.08955,0.89551 -0.1791,1.47759 -0.26865,1.74624c-0.08955,0.3582 -0.1791,0.62685 -0.3582,0.80596c-0.13433,0.13433 -0.3582,0.22388 -0.67163,0.31343c-0.26865,0 -0.80596,0.04478 -1.61191,0.04478h-7.34315c-1.61191,0 -2.73129,0 -3.31337,0.08955c-0.76118,0.08955 -1.34326,0.22388 -1.74624,0.49253c-0.5373,0.31343 -0.98506,0.98506 -1.29848,1.97011c-0.1791,0.58208 -0.49253,1.83579 -0.89551,3.76113h6.3581h9.85057c2.14922,0 3.53725,-0.08955 4.1641,-0.1791c0.80596,-0.13433 1.34326,-0.40298 1.70146,-0.80596c0.40298,-0.44775 0.71641,-1.11938 0.89551,-2.05966c0.13433,-0.62685 0.31343,-1.70146 0.49253,-3.2686l0.40298,-2.9104l0.89551,-6.26854l0.5373,-3.985l0.80596,-5.59691c0.13433,-1.16416 0.22388,-1.97011 0.22388,-2.41787c0.04478,-0.80596 0.04478,-1.38803 0,-1.79101c-0.04478,-0.67163 -0.22388,-1.11938 -0.58208,-1.38803c-0.1791,-0.22388 -0.49253,-0.3582 -0.89551,-0.44775c-0.26865,-0.08955 -0.67163,-0.1791 -1.16416,-0.1791c-0.49253,-0.08955 -1.52236,-0.08955 -3.0895,-0.08955h-9.85057c-1.79101,0 -2.99995,0 -3.6268,0.08955c-0.98506,0.08955 -1.65669,0.3582 -2.10444,0.76118c-0.3582,0.3582 -0.67163,1.02983 -0.94028,1.97011c-0.08955,0.5373 -0.31343,1.70146 -0.58208,3.49247zM470.10101,230.23143h8.28343l-1.11938,7.97001c-0.08955,0.49253 -0.13433,0.85073 -0.22388,1.02983c-0.04478,0.1791 -0.08955,0.26865 -0.22388,0.3582c-0.08955,0.08955 -0.26865,0.13433 -0.49253,0.1791c-0.1791,0 -0.49253,0.04478 -0.98506,0.04478h-8.14911l0.5373,-4.11933l0.5373,-3.8059c0.08955,-0.44775 0.13433,-0.71641 0.13433,-0.85073c0.08955,-0.26865 0.13433,-0.44775 0.22388,-0.5373c0.08955,-0.13433 0.26865,-0.22388 0.44775,-0.22388c0.1791,-0.04478 0.49253,-0.04478 1.02983,-0.04478z" data-paper-data="{&quot;glyphName&quot;:&quot;g&quot;,&quot;glyphIndex&quot;:13,&quot;lastGlyphOfWord&quot;:true,&quot;word&quot;:3}" id="element-id-51264"></path></g><g data-paper-data="{&quot;fillRule&quot;:&quot;evenodd&quot;,&quot;fillRuleOriginal&quot;:&quot;evenodd&quot;,&quot;isIcon&quot;:true,&quot;iconStyle&quot;:&quot;standalone&quot;,&quot;selectedEffects&quot;:{&quot;container&quot;:&quot;&quot;,&quot;transformation&quot;:&quot;&quot;,&quot;pattern&quot;:&quot;&quot;},&quot;bounds&quot;:{&quot;x&quot;:65.00000000000001,&quot;y&quot;:213.13762976413042,&quot;width&quot;:51.08938991428491,&quot;height&quot;:43.724740471739125},&quot;iconType&quot;:&quot;icon&quot;,&quot;rawIconId&quot;:&quot;13236&quot;,&quot;isDetailed&quot;:false,&quot;suitableAsStandaloneIcon&quot;:true}" fill-rule="evenodd" id="element-id-70655"><path d="M98.27228,213.15498c-2.28404,0.15262 -3.95866,1.29464 -4.49177,3.57868c-0.22893,1.21833 -0.15262,2.36035 -0.22946,3.12135c0.02653,0.4996 0.00763,0.97198 -0.00968,1.40453c-0.03284,0.8201 -0.05994,1.49715 0.23914,1.94575c0.98993,1.52305 2.20773,3.35028 3.57816,3.80709c1.21938,0.30419 3.19871,-1.06624 4.26389,-2.13247c2.51245,-2.5877 2.20878,-5.6338 1.21833,-8.83145c-0.76152,-2.20773 -2.36088,-3.04556 -4.56861,-2.89347zM87.68938,220.15973c-0.91309,-2.89294 -3.95866,-5.17699 -6.16744,-4.49177c-2.81716,0.91362 -4.11075,2.96925 -3.80709,6.16744c0,0.06942 -0.00395,0.15067 -0.00826,0.2393c-0.01463,0.30035 -0.03342,0.68511 0.08405,0.97851c1.21833,1.90354 2.05616,4.26389 3.73078,5.48223c1.14255,0.83678 4.41652,0.6089 5.02594,-0.30472c1.21833,-1.67514 1.21833,-4.34021 1.67514,-6.54794c0.05115,-0.30424 -0.13483,-0.676 -0.30977,-1.0255c-0.08768,-0.1752 -0.17257,-0.34482 -0.22335,-0.49754zM116.08939,229.52483c0,-3.12135 -1.90407,-5.1012 -4.72123,-5.1012c-3.12135,0 -5.8622,2.81716 -5.93851,6.24322c-0.15315,2.96925 2.28404,5.63432 5.02437,5.71011c2.7419,0.07684 5.63537,-3.34923 5.63537,-6.85213zM65,240.03142c0.07631,3.19766 4.34021,7.6147 7.15737,7.6147c2.66507,-0.07578 5.1012,-4.1118 5.10068,-8.14782c0,-3.04504 -3.27344,-6.85213 -5.8622,-6.85213c-2.89294,-0.07578 -6.39584,4.03549 -6.39584,7.38524zM85.55743,256.47811c2.58876,1.1415 4.56808,-0.45786 6.31953,-2.20931c1.79203,-1.75461 2.72317,-2.66628 3.84009,-3.1064c1.20807,-0.47602 2.63354,-0.40034 5.6008,-0.24283c4.26389,0.15262 7.00475,-2.66401 5.63432,-6.09008c-0.9894,-2.51402 -2.74085,-4.41652 -5.63432,-4.87438c-1.37042,-0.15209 -2.89347,-0.60838 -3.88287,-1.36937c-4.34021,-3.27397 -9.3651,-0.91467 -10.65921,3.57816c-0.761,2.51245 -2.58928,3.80761 -3.88287,5.71063c-0.99045,1.59936 -2.05616,3.88287 -1.59936,5.40539c0.38155,1.37095 2.51245,2.58823 4.26389,3.19819z" data-paper-data="{&quot;isPathIcon&quot;:true}" id="element-id-17550"></path></g></g></g><g class="watermark-group" style="opacity:0.040000010281801224"><path class="watermark-path" d="M129.52,370.3a11.88,11.88,0,0,1,2.58,5.58,12,12,0,0,1,.11,3,11.81,11.81,0,0,1-.64,2.93,12.34,12.34,0,0,1-1.41,2.72,11.65,11.65,0,0,1-2.13,2.32,12,12,0,0,1-2.64,1.69,13,13,0,0,1-2.91.9,12.47,12.47,0,0,1-3,.12,12.17,12.17,0,0,1-2.93-.64,11.8,11.8,0,0,1-2.72-1.38,12.19,12.19,0,0,1-4-4.79,11.85,11.85,0,0,1-.89-2.92,12.14,12.14,0,0,1-.13-3,11.54,11.54,0,0,1,.64-2.92,11.67,11.67,0,0,1,3.5-5,11.44,11.44,0,0,1,2.67-1.69,11.64,11.64,0,0,1,2.92-.91,10.71,10.71,0,0,1,3-.12,11.68,11.68,0,0,1,5.66,2,11.7,11.7,0,0,1,2.34,2.12m-1.4,8.76a13,13,0,0,1-1.22,2.32,9.68,9.68,0,0,1-1.81,2,7.44,7.44,0,0,1-2.38,1.37,6.17,6.17,0,0,1-5.11-.46,8.73,8.73,0,0,1-3.85-4.58,6.69,6.69,0,0,1-.34-2.66,6.09,6.09,0,0,1,.77-2.47,7.15,7.15,0,0,1,1.75-2.11,9.58,9.58,0,0,1,1.09-.81,8.23,8.23,0,0,1,1.12-.63,8.14,8.14,0,0,1,1.19-.46,12.71,12.71,0,0,1,1.32-.37l2,2.38a12.83,12.83,0,0,0-1.56.17,7.86,7.86,0,0,0-1.23.32,4.5,4.5,0,0,0-1,.49,6.41,6.41,0,0,0-.93.67,4.49,4.49,0,0,0-1.15,1.39,3.87,3.87,0,0,0-.45,1.58,4.12,4.12,0,0,0,.26,1.63,6.11,6.11,0,0,0,2.36,2.82,4.43,4.43,0,0,0,1.57.53,3.91,3.91,0,0,0,1.62-.17,4.71,4.71,0,0,0,1.57-.89,10.5,10.5,0,0,0,.83-.79,5.71,5.71,0,0,0,.65-.93,10.13,10.13,0,0,0,.54-1.14,12.24,12.24,0,0,0,.44-1.49l2,2.33m-14.46,4.55a8.86,8.86,0,0,0,2.78,2.22,9,9,0,0,0,3.29.94,9.15,9.15,0,0,0,3.39-.37,8.68,8.68,0,0,0,3.11-1.69,8.8,8.8,0,0,0,2.22-2.78,9.15,9.15,0,0,0,1-3.29,8.95,8.95,0,0,0-4.83-8.76,9,9,0,0,0-6.73-.57,9,9,0,0,0-5.33,4.47,8.94,8.94,0,0,0-.57,6.71,8.76,8.76,0,0,0,1.7,3.12"></path><path class="watermark-path" d="M147,349c-.48.12-1.09.31-1.82.57a24.37,24.37,0,0,0-2.4,1A28.35,28.35,0,0,0,140,352a20.72,20.72,0,0,0-2.71,1.94c-.7.59-1.28,1.11-1.74,1.57a15.07,15.07,0,0,0-1.1,1.22,4.09,4.09,0,0,0-.59.92,2.32,2.32,0,0,0-.22.64,1.16,1.16,0,0,0,0,.47,1.83,1.83,0,0,0,.18.29,1.15,1.15,0,0,0,1,.37,5.54,5.54,0,0,0,1.51-.38q.87-.35,1.95-.9l2.26-1.18q1.2-.65,2.49-1.29c.87-.44,1.73-.83,2.59-1.17a18.94,18.94,0,0,1,2.6-.81,9.27,9.27,0,0,1,2.46-.29,6.25,6.25,0,0,1,2.24.49,5.12,5.12,0,0,1,1.89,1.47,6.35,6.35,0,0,1,1.41,2.61,6,6,0,0,1,.09,2.6,8.3,8.3,0,0,1-.9,2.52,17.79,17.79,0,0,1-1.62,2.37,23.92,23.92,0,0,1-2,2.15c-.72.67-1.41,1.29-2.09,1.87a33.79,33.79,0,0,1-5.33,3.7,32.29,32.29,0,0,1-4.91,2.28l-3.61-4.3a21.38,21.38,0,0,0,5.39-1.87,27.2,27.2,0,0,0,5.4-3.56,21.59,21.59,0,0,0,2.38-2.27,8.67,8.67,0,0,0,1.18-1.7,2.32,2.32,0,0,0,.27-1.19,1.34,1.34,0,0,0-.28-.74,1.21,1.21,0,0,0-1-.42,4.32,4.32,0,0,0-1.55.34,15.77,15.77,0,0,0-2,.88c-.72.37-1.48.77-2.27,1.21l-2.45,1.3c-.85.45-1.7.85-2.56,1.21a22.37,22.37,0,0,1-2.54.86,10,10,0,0,1-2.43.32,5.76,5.76,0,0,1-2.2-.45,5,5,0,0,1-1.89-1.45,6.12,6.12,0,0,1-1.31-2.41,6,6,0,0,1-.1-2.41,8.28,8.28,0,0,1,.81-2.38,14.06,14.06,0,0,1,1.49-2.24,22.37,22.37,0,0,1,1.85-2.05q1-1,2-1.77c.7-.59,1.44-1.15,2.23-1.7s1.62-1.06,2.44-1.53,1.63-.91,2.43-1.3,1.58-.75,2.3-1L147,349"></path><path class="watermark-path" d="M186.76,337.57l-10.6-12.63,3.92,18.24-4.66,3.91-17.27-7,10.6,12.63-4.86,4.07-15.09-18,6.59-5.54,18.69,7.52-4.15-19.71,6.57-5.52,15.09,18-4.83,4.05"></path><path class="watermark-path" d="M208.84,313.24l-10,8.42,1.16,4.82L194.56,331l-5.68-25.89,5.42-4.55,24.51,10.09-5.42,4.55-4.55-2m-11.23,3.45,6.57-5.52-8.83-3.87,2.26,9.39"></path><path class="watermark-path" d="M227.49,281.38c-.48.12-1.09.31-1.82.57a24.37,24.37,0,0,0-2.4,1,26.11,26.11,0,0,0-2.7,1.47,20.72,20.72,0,0,0-2.71,1.94c-.7.59-1.28,1.11-1.74,1.57a13.39,13.39,0,0,0-1.1,1.22,4.29,4.29,0,0,0-.59.91,2.48,2.48,0,0,0-.22.65,1.16,1.16,0,0,0,0,.47,1.83,1.83,0,0,0,.18.29,1.15,1.15,0,0,0,1,.37,5.54,5.54,0,0,0,1.51-.38q.87-.34,2-.9l2.26-1.18q1.2-.64,2.49-1.29c.87-.44,1.73-.83,2.59-1.17a18.94,18.94,0,0,1,2.6-.81,9.27,9.27,0,0,1,2.46-.29,6.08,6.08,0,0,1,2.24.49,5.09,5.09,0,0,1,1.89,1.46,6.47,6.47,0,0,1,1.41,2.61,6.07,6.07,0,0,1,.09,2.61,8.3,8.3,0,0,1-.9,2.52,16.32,16.32,0,0,1-1.63,2.36,21.41,21.41,0,0,1-2,2.16c-.72.67-1.41,1.29-2.1,1.86a33.36,33.36,0,0,1-5.32,3.71,31.92,31.92,0,0,1-4.92,2.28l-3.6-4.3a21.38,21.38,0,0,0,5.39-1.87,27.2,27.2,0,0,0,5.4-3.56,21.59,21.59,0,0,0,2.38-2.27,8.67,8.67,0,0,0,1.18-1.7A2.32,2.32,0,0,0,231,293a1.34,1.34,0,0,0-.28-.74,1.21,1.21,0,0,0-1-.42,4.32,4.32,0,0,0-1.55.34,16.54,16.54,0,0,0-2,.88c-.71.37-1.47.77-2.26,1.21l-2.46,1.3c-.84.44-1.7.85-2.55,1.21a24.53,24.53,0,0,1-2.54.86A10,10,0,0,1,214,298a5.76,5.76,0,0,1-2.2-.45,5,5,0,0,1-1.89-1.45,6.12,6.12,0,0,1-1.31-2.41,5.78,5.78,0,0,1-.1-2.41,8,8,0,0,1,.81-2.38,14.61,14.61,0,0,1,1.49-2.25,22.26,22.26,0,0,1,1.85-2q1-1,2-1.77c.7-.59,1.44-1.15,2.23-1.7s1.62-1.06,2.44-1.53,1.63-.91,2.43-1.31,1.58-.74,2.3-1l3.5,4.16"></path><path class="watermark-path" d="M261.64,274.74l-6.29-7.5L243,277.61l6.3,7.5-4.86,4.07-15.09-18,4.85-4.08,5.49,6.55L252,263.3l-5.49-6.55,4.86-4.07,15.09,18-4.86,4.08"></path><path class="watermark-path" d="M272.18,265.9l-15.09-18,4.86-4.08,15.09,18-4.86,4.08"></path><path class="watermark-path" d="M299.65,242.85l-22.51-2.18L287.51,253l-4.85,4.08-15.1-18,5.28-4.43,22.56,2.22L285,224.5l4.83-4.06,15.09,18-5.26,4.42"></path><path class="watermark-path" d="M306.68,205.52a31.88,31.88,0,0,1,5.29-3.66,34.48,34.48,0,0,1,5.14-2.35l3.69,4.39a20.77,20.77,0,0,0-2.37.61,20.47,20.47,0,0,0-2.61,1,25.12,25.12,0,0,0-2.76,1.49,23.9,23.9,0,0,0-2.8,2,20.42,20.42,0,0,0-2.8,2.77,12.77,12.77,0,0,0-1.64,2.52,7,7,0,0,0-.68,2.24,6,6,0,0,0,.66,3.64,8.16,8.16,0,0,0,.94,1.38,9.12,9.12,0,0,0,1.08,1.07,6.39,6.39,0,0,0,1.47.91,6.73,6.73,0,0,0,1.88.48,6.54,6.54,0,0,0,2.28-.18,11.67,11.67,0,0,0,2.74-1.07,19.38,19.38,0,0,0,3.18-2.22c.57-.48,1.06-.92,1.46-1.31a14.57,14.57,0,0,0,1-1.13,11.46,11.46,0,0,0,.81-1.05l.74-1.09-1.82-2.17-5.45,4.57-3.31-3.94,10.31-8.65,7.71,9.19a29,29,0,0,1-1.67,2.43q-1,1.26-2.1,2.52c-.74.84-1.5,1.65-2.3,2.44s-1.58,1.5-2.33,2.14a31,31,0,0,1-3.59,2.61,22.55,22.55,0,0,1-3.64,1.83,15.64,15.64,0,0,1-3.63.89,10.72,10.72,0,0,1-3.49-.15,10.45,10.45,0,0,1-3.28-1.33,12.54,12.54,0,0,1-3-2.67,12,12,0,0,1-2.08-3.44,10.45,10.45,0,0,1-.71-3.5,11.14,11.14,0,0,1,.51-3.51,15.72,15.72,0,0,1,1.56-3.43,21.62,21.62,0,0,1,2.42-3.28,30.3,30.3,0,0,1,3.15-3"></path><path class="watermark-path" d="M336.91,211.59l-15.1-18,4.86-4.08,11.79,14,13.13-11,3.31,3.94-18,15.1"></path><path class="watermark-path" d="M374.54,164.71a12.28,12.28,0,0,1,2.59,4.81,10.44,10.44,0,0,1,0,5,14.62,14.62,0,0,1-2.33,5,25.55,25.55,0,0,1-4.56,4.85,26.07,26.07,0,0,1-5.6,3.67,14.79,14.79,0,0,1-5.38,1.43,10.43,10.43,0,0,1-4.94-.89,13.24,13.24,0,0,1-6.87-8.18,10.48,10.48,0,0,1,0-5,14.51,14.51,0,0,1,2.36-5,25.23,25.23,0,0,1,4.57-4.89,25,25,0,0,1,5.59-3.64,14.45,14.45,0,0,1,5.35-1.43,10.31,10.31,0,0,1,4.93.92,12.22,12.22,0,0,1,4.28,3.38m-4.91,4.11a8.36,8.36,0,0,0-2-1.72,5.5,5.5,0,0,0-2.65-.85,7.72,7.72,0,0,0-3.32.57,14.49,14.49,0,0,0-4,2.52,16.72,16.72,0,0,0-2.38,2.4,10.15,10.15,0,0,0-1.39,2.24,6.71,6.71,0,0,0-.56,2.1,5.69,5.69,0,0,0,.1,1.9,6.21,6.21,0,0,0,.61,1.69,9.85,9.85,0,0,0,1,1.44,10.48,10.48,0,0,0,1.26,1.23,6.67,6.67,0,0,0,1.57.92,6.1,6.1,0,0,0,1.85.41,6.8,6.8,0,0,0,2.15-.2,11.06,11.06,0,0,0,2.45-1,17.67,17.67,0,0,0,2.77-1.94,14.39,14.39,0,0,0,3.18-3.52,7.74,7.74,0,0,0,1.14-3.17,5.54,5.54,0,0,0-.37-2.74,8.52,8.52,0,0,0-1.36-2.3"></path><path class="watermark-path" d="M382.66,141.76A32.3,32.3,0,0,1,388,138.1a34.12,34.12,0,0,1,5.15-2.35l3.69,4.4a19.62,19.62,0,0,0-2.37.6,22.08,22.08,0,0,0-2.61,1,26,26,0,0,0-2.77,1.49,23.9,23.9,0,0,0-2.8,2,21,21,0,0,0-2.8,2.78,13.19,13.19,0,0,0-1.64,2.51,7.29,7.29,0,0,0-.68,2.24,6.36,6.36,0,0,0,.06,2,5.8,5.8,0,0,0,.61,1.68,8.12,8.12,0,0,0,.93,1.38,9.16,9.16,0,0,0,1.08,1.08,6.56,6.56,0,0,0,1.48.9,6,6,0,0,0,1.87.48,6.76,6.76,0,0,0,2.28-.17,12,12,0,0,0,2.74-1.08,18.57,18.57,0,0,0,3.18-2.22c.58-.48,1.06-.92,1.46-1.31s.75-.77,1.05-1.12.57-.72.81-1.06l.73-1.09-1.82-2.17-5.45,4.57-3.3-3.94,10.3-8.65,7.71,9.19a29,29,0,0,1-1.67,2.43q-1,1.26-2.1,2.52c-.73.84-1.5,1.66-2.3,2.44s-1.57,1.5-2.33,2.14a31,31,0,0,1-3.59,2.61,22.15,22.15,0,0,1-3.64,1.83,15.56,15.56,0,0,1-3.62.89,11,11,0,0,1-3.49-.14,10.84,10.84,0,0,1-3.28-1.33,12.82,12.82,0,0,1-3-2.68,12.12,12.12,0,0,1-2.08-3.43A10.71,10.71,0,0,1,375,155a11.18,11.18,0,0,1,.51-3.51,15.51,15.51,0,0,1,1.57-3.43,21.44,21.44,0,0,1,2.42-3.28,30.19,30.19,0,0,1,3.14-3"></path><path class="watermark-path" d="M428.63,119.31a12.26,12.26,0,0,1,2.59,4.82,10.44,10.44,0,0,1,0,5,14.53,14.53,0,0,1-2.34,5,25.29,25.29,0,0,1-4.56,4.86,26,26,0,0,1-5.59,3.67,14.84,14.84,0,0,1-5.38,1.43,10.61,10.61,0,0,1-4.95-.89,12.15,12.15,0,0,1-4.3-3.37,12,12,0,0,1-2.56-4.81,10.48,10.48,0,0,1,0-5,14.39,14.39,0,0,1,2.35-5,27.89,27.89,0,0,1,10.16-8.53,14.49,14.49,0,0,1,5.36-1.43,10.27,10.27,0,0,1,4.92.92,12.21,12.21,0,0,1,4.28,3.37m-4.91,4.12a8.17,8.17,0,0,0-2-1.72,5.58,5.58,0,0,0-2.65-.86,7.86,7.86,0,0,0-3.31.58,14.49,14.49,0,0,0-4,2.52,16.21,16.21,0,0,0-2.38,2.4,9.85,9.85,0,0,0-1.4,2.24,7,7,0,0,0-.56,2.1,6,6,0,0,0,.1,1.9,6.23,6.23,0,0,0,.62,1.69,8.49,8.49,0,0,0,1,1.44,9.18,9.18,0,0,0,1.26,1.23,6.67,6.67,0,0,0,1.57.92,6,6,0,0,0,1.84.41,6.86,6.86,0,0,0,2.16-.2,11.26,11.26,0,0,0,2.45-1,17.62,17.62,0,0,0,2.76-1.94,14.67,14.67,0,0,0,3.19-3.52,7.71,7.71,0,0,0,1.13-3.17,5.53,5.53,0,0,0-.36-2.74,8.55,8.55,0,0,0-1.37-2.3"></path></g><rect data-element-id="element-id-90295" stroke-width="2" fill="transparent" class="invisible-element-box grouping-element" x="145" y="215" width="340" height="41" data-element-name="isPrimaryText"></rect><rect data-element-id="element-id-70655" stroke-width="2" fill="transparent" class="invisible-element-box grouping-element" x="65" y="213" width="51" height="44" data-element-name="isIcon"></rect><rect data-element-id="element-id-17550" stroke-width="2" fill="transparent" class="invisible-element-box individual-element" x="65" y="213" width="51" height="44"></rect><rect data-element-id="element-id-88881" stroke-width="2" fill="transparent" class="invisible-element-box individual-element" x="219" y="224" width="27" height="31"></rect><rect data-element-id="element-id-141" stroke-width="2" fill="transparent" class="invisible-element-box individual-element" x="371" y="224" width="27" height="31"></rect><rect data-element-id="element-id-37456" stroke-width="2" fill="transparent" class="invisible-element-box individual-element" x="397" y="224" width="27" height="31"></rect><rect data-element-id="element-id-91570" stroke-width="2" fill="transparent" class="invisible-element-box individual-element" x="145" y="215" width="26" height="31"></rect><rect data-element-id="element-id-64810" stroke-width="2" fill="transparent" class="invisible-element-box individual-element" x="180" y="224" width="26" height="31"></rect><rect data-element-id="element-id-51264" stroke-width="2" fill="transparent" class="invisible-element-box individual-element" x="459" y="224" width="26" height="31"></rect><rect data-element-id="element-id-3793" stroke-width="2" fill="transparent" class="invisible-element-box individual-element" x="336" y="215" width="25" height="31"></rect><rect data-element-id="element-id-98503" stroke-width="2" fill="transparent" class="invisible-element-box individual-element" x="274" y="215" width="23" height="31"></rect><rect data-element-id="element-id-5857" stroke-width="2" fill="transparent" class="invisible-element-box individual-element" x="247" y="224" width="25" height="22"></rect><rect data-element-id="element-id-5010" stroke-width="2" fill="transparent" class="invisible-element-box individual-element" x="311" y="224" width="25" height="22"></rect><rect data-element-id="element-id-25263" stroke-width="2" fill="transparent" class="invisible-element-box individual-element" x="434" y="224" width="25" height="22"></rect><rect data-element-id="element-id-71261" stroke-width="2" fill="transparent" class="invisible-element-box individual-element" x="171" y="215" width="11" height="31"></rect><rect data-element-id="element-id-94132" stroke-width="2" fill="transparent" class="invisible-element-box individual-element" x="362" y="215" width="11" height="31"></rect><rect data-element-id="element-id-61337" stroke-width="2" fill="transparent" class="invisible-element-box individual-element" x="424" y="215" width="11" height="31"></rect></svg>