<svg xmlns:mydata="http://www.w3.org/2000/svg" mydata:contrastcolor="11111f" mydata:template="Contrast" mydata:presentation="2.5" mydata:layouttype="undefined" mydata:specialfontid="undefined" mydata:id1="799" mydata:id2="052" mydata:companyname="DIY Pet Shipping" mydata:companytagline="" version="1.1" xmlns="http://www.w3.org/2000/svg" xmlns:xlink="http://www.w3.org/1999/xlink" style="height: 787px;" viewBox="0 0 550 470"><g fill="#c1a01e" fill-rule="none" stroke="none" stroke-width="1" stroke-linecap="butt" stroke-linejoin="miter" stroke-miterlimit="10" stroke-dasharray="" stroke-dashoffset="0" font-family="none" font-weight="none" font-size="none" text-anchor="none" style="mix-blend-mode: normal"><g data-paper-data="{&quot;isGlobalGroup&quot;:true,&quot;bounds&quot;:{&quot;x&quot;:65,&quot;y&quot;:154.89930009200503,&quot;width&quot;:420,&quot;height&quot;:160.20139981598993}}"><g data-paper-data="{&quot;stacked&quot;:true,&quot;isPrimaryText&quot;:true}" fill-rule="nonzero" id="element-id-73108"><path d="M356.57724,174.31374l-1.23922,8.67454h-30.29204c-6.33379,0 -10.60221,0.13769 -12.66758,0.55076c-2.20306,0.27538 -3.99304,1.10153 -5.09457,2.20306c-1.10153,1.10153 -1.92768,2.89151 -2.61613,5.36995c-0.41307,1.78998 -0.96384,5.50764 -1.78998,11.29067c-0.55076,3.30459 -1.23922,8.26147 -2.20306,14.87064c-0.82615,6.47148 -1.5146,11.29067 -1.92768,14.59526c-0.55076,4.40611 -0.96384,7.29763 -1.23922,8.94992c-0.27538,3.99304 0.13769,6.60917 1.23922,7.98608c0.82615,0.82615 2.20306,1.5146 4.13073,1.92768c1.92768,0.27538 6.05841,0.55076 12.66758,0.55076h30.29204c6.33379,0 10.60221,-0.13769 12.52989,-0.41307c2.06537,-0.41307 3.57997,-0.96384 4.6815,-1.65229c1.5146,-1.10153 2.61613,-3.1669 3.30459,-5.92072c0.55076,-1.78998 1.10153,-5.64533 1.78998,-11.42836l0.68846,-5.09457l10.05145,-71.87475c-5.92072,0 -9.77607,0 -11.70374,0.27538c-2.61613,0.27538 -4.54381,1.10153 -5.78303,2.20306c-1.10153,0.96384 -2.06537,2.75382 -2.75382,5.23226c-0.55076,1.92768 -1.23922,5.78303 -2.06537,11.70374zM327.11135,202.40273c0.27538,0 0.55076,0 0.96384,0h24.50901l-3.30459,24.37132c-0.27538,1.37691 -0.41307,2.20306 -0.68846,2.75382c-0.13769,0.82615 -0.41307,1.37691 -0.82615,1.65229c-0.27538,0.27538 -0.68846,0.41307 -1.23922,0.55076c-0.55076,0 -1.65229,0.13769 -3.57997,0.13769h-24.6467l3.44228,-24.37132c0.27538,-1.37691 0.41307,-2.34075 0.41307,-2.75382c0.27538,-0.82615 0.41307,-1.23922 0.68846,-1.5146c0.27538,-0.41307 0.82615,-0.68846 1.37691,-0.68846c0.55076,-0.13769 1.5146,-0.13769 2.89151,-0.13769z" data-paper-data="{&quot;glyphName&quot;:&quot;d&quot;,&quot;glyphIndex&quot;:0,&quot;firstGlyphOfWord&quot;:true,&quot;word&quot;:1,&quot;line&quot;:1,&quot;firstGlyphOfFirstLine&quot;:true}" id="element-id-37404"></path><path d="M410.41446,154.8993c-6.47148,0 -10.7399,0.13769 -12.66758,0.41307c-2.20306,0.27538 -3.99304,1.10153 -5.09457,2.20306c-1.10153,1.10153 -2.06537,3.1669 -2.75382,6.1961c-0.41307,1.65229 -0.96384,5.23226 -1.78998,10.46452l-0.41307,3.71766h19.55213zM387.00697,182.98828l-4.6815,33.32124l-4.95688,34.97354c6.88455,0 11.29067,-0.27538 13.21834,-0.68846c2.61613,-0.55076 4.40611,-1.65229 5.50764,-3.30459c0.82615,-1.23922 1.5146,-3.0292 1.92768,-5.50764c0.41307,-1.78998 0.96384,-5.09457 1.65229,-9.77607l2.89151,-21.20443l3.99304,-27.8136z" data-paper-data="{&quot;glyphName&quot;:&quot;i&quot;,&quot;glyphIndex&quot;:1,&quot;word&quot;:1,&quot;line&quot;:1}" id="element-id-35810"></path><path d="M417.02363,182.98828l-2.75382,19.27675l-4.13073,29.74128c-0.68846,5.23226 -1.10153,8.81223 -1.10153,10.60221c-0.13769,2.75382 0.13769,4.6815 0.96384,5.92072c0.82615,1.10153 2.61613,1.92768 5.09457,2.34075c1.92768,0.27538 5.92072,0.41307 11.97912,0.41307h30.29204c-0.27538,2.20306 -0.41307,3.71766 -0.68846,4.54381c-0.13769,1.10153 -0.41307,1.92768 -0.68846,2.61613c-0.41307,0.68846 -1.23922,1.23922 -2.34075,1.5146c-0.82615,0.13769 -2.47844,0.27538 -5.23226,0.27538h-22.58134c-4.95688,0 -8.26147,0 -9.91376,0.27538c-2.89151,0.27538 -5.09457,0.96384 -6.47148,2.06537c-1.37691,1.10153 -2.61613,3.30459 -3.57997,6.47148c-0.41307,1.65229 -1.23922,5.23226 -2.34075,10.60221h19.55213h30.29204c5.64533,0 9.36299,-0.13769 11.15298,-0.27538c3.30459,-0.41307 5.50764,-1.23922 6.74686,-2.61613c1.10153,-1.23922 2.06537,-3.1669 2.61613,-5.64533c0.55076,-1.92768 1.10153,-5.50764 1.78998,-10.8776l1.23922,-8.94992l2.75382,-19.27675l4.13073,-29.74128c0.55076,-3.57997 0.82615,-6.05841 0.96384,-7.43532c0.41307,-4.13073 0.27538,-7.02225 -0.41307,-8.39916c-0.68846,-1.65229 -2.61613,-2.75382 -5.64533,-3.1669c-1.78998,-0.27538 -5.64533,-0.27538 -11.70374,-0.27538l-2.75382,19.27675l-3.44228,24.7844c-0.13769,0.96384 -0.27538,1.65229 -0.41307,2.20306c-0.13769,0.55076 -0.27538,0.96384 -0.41307,1.23922c-0.27538,0.55076 -0.68846,0.96384 -1.37691,1.23922c-0.41307,0.13769 -1.65229,0.27538 -3.71766,0.27538h-25.05978l4.13073,-29.74128c0.82615,-6.33379 1.23922,-10.05145 1.23922,-11.42836c0.13769,-2.89151 -0.41307,-4.81919 -1.5146,-5.78303c-1.10153,-1.23922 -3.71766,-1.92768 -7.7107,-2.06537c-1.5146,0 -4.54381,0 -8.94992,0z" data-paper-data="{&quot;glyphName&quot;:&quot;y&quot;,&quot;glyphIndex&quot;:2,&quot;lastGlyphOfWord&quot;:true,&quot;word&quot;:1,&quot;line&quot;:1,&quot;lastGlyphOfFirstLine&quot;:true}" id="element-id-58676"></path><path d="M302.54449,310.58178l0.28441,-1.99085h6.95219c1.48524,0 2.46487,-0.0316 2.90728,-0.0948c0.53721,-0.0948 0.91643,-0.28441 1.16923,-0.53721c0.25281,-0.25281 0.47401,-0.66362 0.60042,-1.23243c0.1264,-0.41081 0.25281,-1.26403 0.41081,-2.55967c0,0 0.31601,-2.27526 0.94803,-6.76259c0.158,-1.01123 0.25281,-1.70645 0.28441,-2.05406c0.0948,-0.94803 0,-1.54844 -0.28441,-1.86445c-0.18961,-0.22121 -0.50561,-0.34761 -0.94803,-0.41081c-0.41081,-0.0948 -1.39044,-0.1264 -2.90728,-0.1264h-6.95219c-1.45364,0 -2.40167,0.0316 -2.87568,0.0948c-0.44241,0.0632 -0.82162,0.18961 -1.07443,0.37921c-0.31601,0.22121 -0.56882,0.66362 -0.75842,1.32724c-0.0948,0.41081 -0.22121,1.29564 -0.41081,2.65447l-0.158,1.16923l-2.30686,16.49565c1.39044,0 2.27526,-0.0316 2.68607,-0.0948c0.63202,-0.0632 1.07443,-0.22121 1.32724,-0.47401c0.28441,-0.25281 0.50561,-0.66362 0.63202,-1.23243c0.1264,-0.44241 0.28441,-1.32724 0.47401,-2.68607zM309.30708,304.1668c-0.0632,0 -0.1264,0 -0.22121,0h-5.62495v-0.0316l0.75842,-5.56175c0.0632,-0.31601 0.1264,-0.53721 0.158,-0.63202c0.0632,-0.18961 0.1264,-0.31601 0.18961,-0.37921c0.0632,-0.0632 0.158,-0.1264 0.28441,-0.1264c0.1264,-0.0316 0.41081,-0.0316 0.82162,-0.0316h5.65656l-0.79002,5.59335c-0.0316,0.31601 -0.0632,0.50561 -0.0948,0.63202c-0.0316,0.1264 -0.0948,0.25281 -0.158,0.34761c-0.0632,0.0632 -0.158,0.0948 -0.31601,0.158c-0.1264,0 -0.34761,0.0316 -0.66362,0.0316z" data-paper-data="{&quot;glyphName&quot;:&quot;p&quot;,&quot;glyphIndex&quot;:3,&quot;firstGlyphOfWord&quot;:true,&quot;word&quot;:2,&quot;line&quot;:2,&quot;firstGlyphOfSecondLine&quot;:true}" id="element-id-40465"></path><path d="M323.17986,292.91689c-1.45364,0 -2.40167,0.0316 -2.84408,0.0948c-0.56882,0.0632 -1.01123,0.25281 -1.32724,0.53721c-0.28441,0.25281 -0.50561,0.79002 -0.66362,1.54844c-0.0632,0.37921 -0.18961,1.10603 -0.37921,2.24366l-0.94803,6.76259c-0.158,1.26403 -0.25281,2.08566 -0.28441,2.52807c0,0.53721 0.0632,0.94803 0.18961,1.20083c0.18961,0.28441 0.50561,0.47401 0.94803,0.60042c0.44241,0.0948 1.42204,0.1264 3.00208,0.1264h11.47111c0,-1.26403 0,-2.08566 -0.0632,-2.46487c-0.0316,-0.69522 -0.158,-1.13763 -0.41081,-1.39044c-0.18961,-0.25281 -0.53721,-0.41081 -1.04283,-0.47401c-0.34761,-0.0632 -1.13763,-0.0948 -2.37007,-0.0948h-6.16217h-0.79002c0.0632,-0.34761 0.0948,-0.56882 0.0948,-0.66362c0.0316,-0.18961 0.0632,-0.31601 0.1264,-0.37921c0.0632,-0.0632 0.158,-0.0948 0.25281,-0.0948c0.0948,-0.0316 0.25281,-0.0316 0.47401,-0.0316h6.19377c1.39044,0 2.27526,-0.0316 2.71767,-0.0948c0.63202,-0.0632 1.07443,-0.25281 1.35884,-0.50561c0.25281,-0.28441 0.47401,-0.72682 0.60042,-1.32724c0.1264,-0.41081 0.25281,-1.23243 0.41081,-2.49647l0.18961,-1.20083c0.1264,-1.01123 0.22121,-1.67485 0.25281,-2.02246c0.0948,-1.04283 -0.0316,-1.70645 -0.41081,-1.99085c-0.25281,-0.18961 -0.72682,-0.31601 -1.42204,-0.37921c-0.37921,-0.0316 -1.13763,-0.0316 -2.27526,-0.0316zM323.24306,297.37261h5.43535h0.72682c-0.0316,0.34761 -0.0632,0.60042 -0.0948,0.72682c0,0.1264 -0.0316,0.18961 -0.0948,0.25281c-0.0632,0.0632 -0.18961,0.1264 -0.37921,0.158c-0.0632,0 -0.158,0 -0.31601,0h-5.43535h-0.79002c0.0632,-0.37921 0.0948,-0.60042 0.0948,-0.69522c0.0632,-0.1264 0.0948,-0.22121 0.1264,-0.28441c0.0632,-0.0632 0.1264,-0.1264 0.18961,-0.1264c0.0632,-0.0316 0.25281,-0.0316 0.53721,-0.0316z" data-paper-data="{&quot;glyphName&quot;:&quot;e&quot;,&quot;glyphIndex&quot;:4,&quot;word&quot;:2,&quot;line&quot;:2}" id="element-id-22502"></path><path d="M341.76117,286.47031l-0.88482,6.47818c-1.35884,0 -2.24366,0 -2.68607,0.0632c-0.63202,0.0632 -1.07443,0.25281 -1.39044,0.50561c-0.28441,0.28441 -0.50561,0.82162 -0.69522,1.61164c-0.0632,0.37921 -0.18961,1.13763 -0.34761,2.27526h4.48732l-0.158,1.13763l-0.63202,4.45572l-0.158,1.16923c-0.18961,1.16923 -0.31601,1.95925 -0.37921,2.37007c-0.0316,0.63202 0.0316,1.10603 0.18961,1.39044c0.22121,0.31601 0.72682,0.53721 1.54844,0.63202c0.44241,0 1.26403,0.0316 2.49647,0.0316h2.49647c1.35884,0 2.24366,-0.0316 2.65447,-0.0632c0.63202,-0.0948 1.10603,-0.25281 1.39044,-0.50561c0.25281,-0.25281 0.47401,-0.69522 0.63202,-1.26403c0.1264,-0.44241 0.25281,-1.29564 0.41081,-2.59127h-4.48732h-2.46487l0.158,-1.16923l0.63202,-4.45572l0.158,-1.13763h2.46487c1.32724,0 2.18046,-0.0316 2.59127,-0.0632c0.63202,-0.0948 1.10603,-0.25281 1.39044,-0.44241c0.28441,-0.25281 0.50561,-0.63202 0.66362,-1.13763c0.1264,-0.44241 0.28441,-1.35884 0.47401,-2.81248h-4.48732h-2.46487l0.28441,-2.02246c0.18961,-1.10603 0.28441,-1.80125 0.28441,-2.08566c0.0948,-0.69522 0.0632,-1.20083 -0.0632,-1.51684c-0.18961,-0.44241 -0.69522,-0.69522 -1.58004,-0.75842c-0.47401,-0.0632 -1.32724,-0.0948 -2.52807,-0.0948z" data-paper-data="{&quot;glyphName&quot;:&quot;t&quot;,&quot;glyphIndex&quot;:5,&quot;lastGlyphOfWord&quot;:true,&quot;word&quot;:2,&quot;line&quot;:2}" id="element-id-88053"></path><path d="M363.18656,297.37261l-0.158,1.16923c-0.18961,1.23243 -0.31601,2.05406 -0.37921,2.49647c-0.0316,0.69522 0.0632,1.20083 0.31601,1.45364c0.25281,0.22121 0.66362,0.37921 1.29564,0.44241c0.44241,0.0316 1.32724,0.0632 2.65447,0.0632h6.95219c-0.0316,0.28441 -0.0632,0.47401 -0.0948,0.60042c0,0.158 -0.0632,0.28441 -0.1264,0.37921c-0.0632,0.0632 -0.158,0.0948 -0.28441,0.158c-0.0948,0 -0.34761,0 -0.72682,0h-5.90936h-4.48732c-0.18961,1.35884 -0.28441,2.24366 -0.28441,2.68607c0,0.50561 0.0948,0.88482 0.25281,1.13763c0.158,0.22121 0.44241,0.37921 0.82162,0.47401c0.44241,0.0948 1.45364,0.158 3.09689,0.158h6.95219c1.61164,0 2.65447,-0.0632 3.09689,-0.158c0.47401,-0.0948 0.82162,-0.28441 1.07443,-0.56882c0.18961,-0.22121 0.31601,-0.50561 0.44241,-0.94803c0.1264,-0.44241 0.31601,-1.39044 0.50561,-2.78088l0.158,-1.13763c0.158,-1.26403 0.25281,-2.08566 0.25281,-2.46487c0.0316,-0.69522 -0.0632,-1.16923 -0.31601,-1.42204c-0.22121,-0.28441 -0.66362,-0.44241 -1.35884,-0.50561c-0.37921,-0.0632 -1.20083,-0.0632 -2.46487,-0.0632h-6.95219c0.0632,-0.34761 0.0948,-0.56882 0.0948,-0.66362c0.0316,-0.1264 0.0632,-0.22121 0.1264,-0.28441c0.0632,-0.0948 0.18961,-0.158 0.31601,-0.18961c0.1264,-0.0316 0.44241,-0.0316 0.88482,-0.0316h5.71976c1.32724,0 2.18046,-0.0316 2.59127,-0.0632c0.44241,-0.0632 0.75842,-0.1264 1.01123,-0.25281c0.44241,-0.22121 0.75842,-0.63202 0.94803,-1.26403c0.158,-0.44241 0.34761,-1.39044 0.53721,-2.84408h-4.48732h-6.95219c-1.32724,0 -2.21206,0 -2.65447,0.0632c-0.56882,0.0632 -0.97963,0.18961 -1.26403,0.41081c-0.31601,0.22121 -0.56882,0.66362 -0.72682,1.29564c-0.1264,0.41081 -0.28441,1.29564 -0.47401,2.65447z" data-paper-data="{&quot;glyphName&quot;:&quot;s&quot;,&quot;glyphIndex&quot;:6,&quot;firstGlyphOfWord&quot;:true,&quot;word&quot;:2,&quot;line&quot;:2}" id="element-id-14089"></path><path d="M383.0003,286.43871l-1.10603,8.02662l-1.35884,9.66987l-0.63202,4.42412c1.39044,0 2.27526,-0.0316 2.68607,-0.0632c0.53721,-0.0632 0.94803,-0.18961 1.20083,-0.37921c0.34761,-0.25281 0.60042,-0.69522 0.75842,-1.32724c0.1264,-0.44241 0.28441,-1.32724 0.47401,-2.65447l0.94803,-6.76259h6.95219l-0.94803,6.76259l-0.63202,4.42412c1.51684,0 2.49647,-0.0316 2.93888,-0.0948c0.63202,-0.1264 1.07443,-0.34761 1.32724,-0.66362c0.22121,-0.28441 0.37921,-0.69522 0.50561,-1.26403c0.0948,-0.41081 0.22121,-1.20083 0.34761,-2.40167l0.94803,-6.76259c0.18961,-1.32724 0.28441,-2.21206 0.28441,-2.62287c0.0316,-0.60042 -0.0632,-1.01123 -0.28441,-1.26403c-0.18961,-0.25281 -0.53721,-0.41081 -1.04283,-0.47401c-0.44241,-0.0632 -1.35884,-0.0948 -2.81248,-0.0948h-6.95219l0.28441,-2.02246c0.22121,-1.23243 0.34761,-2.05406 0.34761,-2.46487c0.0632,-0.60042 0,-1.04283 -0.18961,-1.29564c-0.18961,-0.31601 -0.56882,-0.50561 -1.16923,-0.60042c-0.44241,-0.0632 -1.39044,-0.0948 -2.87568,-0.0948z" data-paper-data="{&quot;glyphName&quot;:&quot;h&quot;,&quot;glyphIndex&quot;:7,&quot;word&quot;:2,&quot;line&quot;:2}" id="element-id-76373"></path><path d="M405.91093,286.47031c-1.48524,0 -2.46487,0.0316 -2.90728,0.0948c-0.50561,0.0632 -0.91643,0.25281 -1.16923,0.50561c-0.25281,0.25281 -0.47401,0.72682 -0.63202,1.42204c-0.0948,0.37921 -0.22121,1.20083 -0.41081,2.40167l-0.0948,0.85322h4.48732zM400.53878,292.91689l-1.07443,7.64741l-1.13763,8.02662c1.58004,0 2.59127,-0.0632 3.03368,-0.158c0.60042,-0.1264 1.01123,-0.37921 1.26403,-0.75842c0.18961,-0.28441 0.34761,-0.69522 0.44241,-1.26403c0.0948,-0.41081 0.22121,-1.16923 0.37921,-2.24366l0.66362,-4.86653l0.91643,-6.38338z" data-paper-data="{&quot;glyphName&quot;:&quot;i&quot;,&quot;glyphIndex&quot;:8,&quot;word&quot;:2,&quot;line&quot;:2}" id="element-id-65496"></path><path d="M409.60823,310.58178l0.28441,-1.99085h6.95219c1.48524,0 2.46487,-0.0316 2.90728,-0.0948c0.53721,-0.0948 0.91643,-0.28441 1.16923,-0.53721c0.25281,-0.25281 0.47401,-0.66362 0.60042,-1.23243c0.1264,-0.41081 0.25281,-1.26403 0.41081,-2.55967c0,0 0.31601,-2.27526 0.94803,-6.76259c0.158,-1.01123 0.25281,-1.70645 0.28441,-2.05406c0.0948,-0.94803 0,-1.54844 -0.28441,-1.86445c-0.18961,-0.22121 -0.50561,-0.34761 -0.94803,-0.41081c-0.41081,-0.0948 -1.39044,-0.1264 -2.90728,-0.1264h-6.95219c-1.45364,0 -2.40167,0.0316 -2.87568,0.0948c-0.44241,0.0632 -0.82162,0.18961 -1.07443,0.37921c-0.31601,0.22121 -0.56882,0.66362 -0.75842,1.32724c-0.0948,0.41081 -0.22121,1.29564 -0.41081,2.65447l-0.158,1.16923l-2.30686,16.49565c1.39044,0 2.27526,-0.0316 2.68607,-0.0948c0.63202,-0.0632 1.07443,-0.22121 1.32724,-0.47401c0.28441,-0.25281 0.50561,-0.66362 0.63202,-1.23243c0.1264,-0.44241 0.28441,-1.32724 0.47401,-2.68607zM416.37082,304.1668c-0.0632,0 -0.1264,0 -0.22121,0h-5.62495v-0.0316l0.75842,-5.56175c0.0632,-0.31601 0.1264,-0.53721 0.158,-0.63202c0.0632,-0.18961 0.1264,-0.31601 0.18961,-0.37921c0.0632,-0.0632 0.158,-0.1264 0.28441,-0.1264c0.1264,-0.0316 0.41081,-0.0316 0.82162,-0.0316h5.65656l-0.79002,5.59335c-0.0316,0.31601 -0.0632,0.50561 -0.0948,0.63202c-0.0316,0.1264 -0.0948,0.25281 -0.158,0.34761c-0.0632,0.0632 -0.158,0.0948 -0.31601,0.158c-0.1264,0 -0.34761,0.0316 -0.66362,0.0316z" data-paper-data="{&quot;glyphName&quot;:&quot;p&quot;,&quot;glyphIndex&quot;:9,&quot;word&quot;:2,&quot;line&quot;:2}" id="element-id-80534"></path><path d="M427.81033,310.58178l0.28441,-1.99085h6.95219c1.48524,0 2.46487,-0.0316 2.90728,-0.0948c0.53721,-0.0948 0.91643,-0.28441 1.16923,-0.53721c0.25281,-0.25281 0.47401,-0.66362 0.60042,-1.23243c0.1264,-0.41081 0.25281,-1.26403 0.41081,-2.55967c0,0 0.31601,-2.27526 0.94803,-6.76259c0.158,-1.01123 0.25281,-1.70645 0.28441,-2.05406c0.0948,-0.94803 0,-1.54844 -0.28441,-1.86445c-0.18961,-0.22121 -0.50561,-0.34761 -0.94803,-0.41081c-0.41081,-0.0948 -1.39044,-0.1264 -2.90728,-0.1264h-6.95219c-1.45364,0 -2.40167,0.0316 -2.87568,0.0948c-0.44241,0.0632 -0.82162,0.18961 -1.07443,0.37921c-0.31601,0.22121 -0.56882,0.66362 -0.75842,1.32724c-0.0948,0.41081 -0.22121,1.29564 -0.41081,2.65447l-0.158,1.16923l-2.30686,16.49565c1.39044,0 2.27526,-0.0316 2.68607,-0.0948c0.63202,-0.0632 1.07443,-0.22121 1.32724,-0.47401c0.28441,-0.25281 0.50561,-0.66362 0.63202,-1.23243c0.1264,-0.44241 0.28441,-1.32724 0.47401,-2.68607zM434.57292,304.1668c-0.0632,0 -0.1264,0 -0.22121,0h-5.62495v-0.0316l0.75842,-5.56175c0.0632,-0.31601 0.1264,-0.53721 0.158,-0.63202c0.0632,-0.18961 0.1264,-0.31601 0.18961,-0.37921c0.0632,-0.0632 0.158,-0.1264 0.28441,-0.1264c0.1264,-0.0316 0.41081,-0.0316 0.82162,-0.0316h5.65656l-0.79002,5.59335c-0.0316,0.31601 -0.0632,0.50561 -0.0948,0.63202c-0.0316,0.1264 -0.0948,0.25281 -0.158,0.34761c-0.0632,0.0632 -0.158,0.0948 -0.31601,0.158c-0.1264,0 -0.34761,0.0316 -0.66362,0.0316z" data-paper-data="{&quot;glyphName&quot;:&quot;p&quot;,&quot;glyphIndex&quot;:10,&quot;word&quot;:2,&quot;line&quot;:2}" id="element-id-48903"></path><path d="M449.58333,286.47031c-1.48524,0 -2.46487,0.0316 -2.90728,0.0948c-0.50561,0.0632 -0.91643,0.25281 -1.16923,0.50561c-0.25281,0.25281 -0.47401,0.72682 -0.63202,1.42204c-0.0948,0.37921 -0.22121,1.20083 -0.41081,2.40167l-0.0948,0.85322h4.48732zM444.21118,292.91689l-1.07443,7.64741l-1.13763,8.02662c1.58004,0 2.59127,-0.0632 3.03368,-0.158c0.60042,-0.1264 1.01123,-0.37921 1.26403,-0.75842c0.18961,-0.28441 0.34761,-0.69522 0.44241,-1.26403c0.0948,-0.41081 0.22121,-1.16923 0.37921,-2.24366l0.66362,-4.86653l0.91643,-6.38338z" data-paper-data="{&quot;glyphName&quot;:&quot;i&quot;,&quot;glyphIndex&quot;:11,&quot;word&quot;:2,&quot;line&quot;:2}" id="element-id-20066"></path><path d="M450.84736,297.40421l-0.158,1.13763l-0.63202,4.45572l-0.158,1.16923l-0.63202,4.42412c1.35884,0 2.24366,-0.0316 2.65447,-0.0632c0.56882,-0.0948 1.01123,-0.25281 1.26403,-0.44241c0.31601,-0.25281 0.56882,-0.63202 0.69522,-1.16923c0.1264,-0.44241 0.31601,-1.35884 0.50561,-2.74928l0.158,-1.16923l0.63202,-4.45572c0.0632,-0.34761 0.0948,-0.56882 0.0948,-0.66362c0.0632,-0.18961 0.158,-0.31601 0.22121,-0.37921c0.0948,-0.0632 0.18961,-0.0948 0.31601,-0.0948c0.1264,-0.0316 0.34761,-0.0316 0.69522,0h5.78296l-0.158,1.13763l-0.63202,4.45572l-0.158,1.16923l-0.63202,4.42412c1.54844,0 2.55967,-0.0632 3.00208,-0.1264c0.53721,-0.1264 0.91643,-0.31601 1.16923,-0.60042c0.25281,-0.25281 0.41081,-0.66362 0.53721,-1.16923c0.1264,-0.41081 0.25281,-1.26403 0.41081,-2.52807l0.158,-1.16923l0.63202,-4.45572l0.158,-1.13763c0.22121,-1.51684 0.31601,-2.49647 0.28441,-2.93888c-0.0316,-0.53721 -0.18961,-0.91643 -0.44241,-1.10603c-0.18961,-0.18961 -0.50561,-0.28441 -0.91643,-0.34761c-0.41081,-0.0632 -1.32724,-0.0948 -2.78088,-0.0632h-1.29564h-4.48732h-1.16923c-1.39044,-0.0316 -2.33846,0 -2.78088,0.0632c-0.50561,0.0632 -0.88482,0.18961 -1.13763,0.37921c-0.31601,0.22121 -0.56882,0.63202 -0.75842,1.23243c-0.0948,0.41081 -0.25281,1.32724 -0.44241,2.78088z" data-paper-data="{&quot;glyphName&quot;:&quot;n&quot;,&quot;glyphIndex&quot;:12,&quot;word&quot;:2,&quot;line&quot;:2}" id="element-id-16548"></path><path d="M468.85986,297.40421c0,0.0316 -0.1264,1.10603 -0.44241,3.25489c-0.0632,0.37921 -0.1264,0.94803 -0.25281,1.73805c-0.0948,0.75842 -0.18961,1.35884 -0.25281,1.76965c-0.1264,1.01123 -0.18961,1.70645 -0.25281,2.08566c-0.0632,0.75842 0,1.26403 0.158,1.58004c0.18961,0.34761 0.60042,0.56882 1.23243,0.69522c0.44241,0.0316 1.35884,0.0632 2.74928,0.0632h6.95219c-0.0632,0.63202 -0.1264,1.04283 -0.18961,1.23243c-0.0632,0.25281 -0.1264,0.44241 -0.25281,0.56882c-0.0948,0.0948 -0.25281,0.158 -0.47401,0.22121c-0.18961,0 -0.56882,0.0316 -1.13763,0.0316h-5.18254c-1.13763,0 -1.92765,0 -2.33846,0.0632c-0.53721,0.0632 -0.94803,0.158 -1.23243,0.34761c-0.37921,0.22121 -0.69522,0.69522 -0.91643,1.39044c-0.1264,0.41081 -0.34761,1.29564 -0.63202,2.65447h4.48732h6.95219c1.51684,0 2.49647,-0.0632 2.93888,-0.1264c0.56882,-0.0948 0.94803,-0.28441 1.20083,-0.56882c0.28441,-0.31601 0.50561,-0.79002 0.63202,-1.45364c0.0948,-0.44241 0.22121,-1.20083 0.34761,-2.30686l0.28441,-2.05406l0.63202,-4.42412l0.37921,-2.81248l0.56882,-3.95011c0.0948,-0.82162 0.158,-1.39044 0.158,-1.70645c0.0316,-0.56882 0.0316,-0.97963 0,-1.26403c-0.0316,-0.47401 -0.158,-0.79002 -0.41081,-0.97963c-0.1264,-0.158 -0.34761,-0.25281 -0.63202,-0.31601c-0.18961,-0.0632 -0.47401,-0.1264 -0.82162,-0.1264c-0.34761,-0.0632 -1.07443,-0.0632 -2.18046,-0.0632h-6.95219c-1.26403,0 -2.11726,0 -2.55967,0.0632c-0.69522,0.0632 -1.16923,0.25281 -1.48524,0.53721c-0.25281,0.25281 -0.47401,0.72682 -0.66362,1.39044c-0.0632,0.37921 -0.22121,1.20083 -0.41081,2.46487zM474.48481,297.40421h5.84616l-0.79002,5.62495c-0.0632,0.34761 -0.0948,0.60042 -0.158,0.72682c-0.0316,0.1264 -0.0632,0.18961 -0.158,0.25281c-0.0632,0.0632 -0.18961,0.0948 -0.34761,0.1264c-0.1264,0 -0.34761,0.0316 -0.69522,0.0316h-5.75136l0.37921,-2.90728l0.37921,-2.68607c0.0632,-0.31601 0.0948,-0.50561 0.0948,-0.60042c0.0632,-0.18961 0.0948,-0.31601 0.158,-0.37921c0.0632,-0.0948 0.18961,-0.158 0.31601,-0.158c0.1264,-0.0316 0.34761,-0.0316 0.72682,-0.0316z" data-paper-data="{&quot;glyphName&quot;:&quot;g&quot;,&quot;glyphIndex&quot;:13,&quot;lastGlyphOfWord&quot;:true,&quot;word&quot;:2,&quot;line&quot;:2,&quot;lastGlyphOfSecondLine&quot;:true}" id="element-id-92024"></path></g><g data-paper-data="{&quot;fillRule&quot;:&quot;evenodd&quot;,&quot;fillRuleOriginal&quot;:&quot;evenodd&quot;,&quot;isIcon&quot;:true,&quot;iconStyle&quot;:&quot;standalone&quot;,&quot;selectedEffects&quot;:{&quot;container&quot;:&quot;&quot;,&quot;transformation&quot;:&quot;&quot;,&quot;pattern&quot;:&quot;&quot;},&quot;bounds&quot;:{&quot;x&quot;:65,&quot;y&quot;:157.8363257552982,&quot;width&quot;:180.32102641086902,&quot;height&quot;:154.32734848940365},&quot;iconType&quot;:&quot;icon&quot;,&quot;rawIconId&quot;:&quot;13236&quot;,&quot;isDetailed&quot;:false,&quot;suitableAsStandaloneIcon&quot;:true}" fill-rule="evenodd" id="element-id-3973"><path d="M182.43519,157.89758c-8.06158,0.53867 -13.97216,4.56946 -15.85381,12.63104c-0.80802,4.30012 -0.53867,8.33091 -0.80988,11.01687c0.09362,1.76333 0.02693,3.43063 -0.03418,4.95731c-0.11591,2.89455 -0.21157,5.28423 0.84405,6.86757c3.49396,5.37562 7.79223,11.82488 12.62918,13.43719c4.30384,1.07364 11.28992,-3.76331 15.0495,-7.52661c8.86773,-9.13335 7.79595,-19.88459 4.30012,-31.1708c-2.68781,-7.79223 -8.33277,-10.74938 -16.125,-10.21256zM145.08262,182.62097c-3.22277,-10.21071 -13.97216,-18.27228 -21.7681,-15.85381c-9.94323,3.22463 -14.50897,10.48004 -13.43719,21.7681c0,0.245 -0.01393,0.5318 -0.02917,0.84461c-0.05163,1.06008 -0.11795,2.4181 0.29665,3.45366c4.30012,6.7186 7.25727,15.0495 13.16785,19.34963c4.03265,2.95343 15.58818,2.14913 17.73917,-1.0755c4.30012,-5.91244 4.30012,-15.31885 5.91244,-23.11108c0.18055,-1.07382 -0.47589,-2.38596 -1.09333,-3.61954c-0.30946,-0.61837 -0.60908,-1.21704 -0.78833,-1.75608zM245.32103,215.67528c0,-11.01687 -6.72046,-18.00479 -16.66368,-18.00479c-11.01687,0 -20.69075,9.94323 -20.96009,22.03558c-0.54053,10.48004 8.06158,19.88645 17.7336,20.15393c9.6776,0.27119 19.89017,-11.82116 19.89017,-24.18472zM65,252.7585c0.26934,11.2862 15.31885,26.87624 25.26207,26.87624c9.40641,-0.26748 18.00479,-14.51269 18.00294,-28.75789c0,-10.74752 -11.55368,-24.18472 -20.69075,-24.18472c-10.21071,-0.26748 -22.57426,14.24335 -22.57426,26.06637zM137.55786,310.8074c9.13706,4.02893 16.12314,-1.61603 22.30492,-7.7978c6.32499,-6.19292 9.61147,-9.41067 13.55366,-10.96411c4.26391,-1.68011 9.29514,-1.413 19.76813,-0.85706c15.0495,0.53867 24.72339,-9.40269 19.88645,-21.49505c-3.49211,-8.8733 -9.67389,-15.58818 -19.88645,-17.20421c-4.83694,-0.53682 -10.21256,-2.14727 -13.70467,-4.83323c-15.31885,-11.55554 -33.0543,-3.22834 -37.62191,12.62918c-2.68595,8.86773 -9.13892,13.43905 -13.70467,20.15579c-3.49582,5.64496 -7.25727,13.70467 -5.64496,19.07843c1.34669,4.8388 8.86773,9.13521 15.0495,11.28806z" data-paper-data="{&quot;isPathIcon&quot;:true}" id="element-id-46103"></path></g></g></g><g class="watermark-group" style="opacity:0.040000010281801224"><path class="watermark-path" d="M129.52,370.3a11.88,11.88,0,0,1,2.58,5.58,12,12,0,0,1,.11,3,11.81,11.81,0,0,1-.64,2.93,12.34,12.34,0,0,1-1.41,2.72,11.65,11.65,0,0,1-2.13,2.32,12,12,0,0,1-2.64,1.69,13,13,0,0,1-2.91.9,12.47,12.47,0,0,1-3,.12,12.17,12.17,0,0,1-2.93-.64,11.8,11.8,0,0,1-2.72-1.38,12.19,12.19,0,0,1-4-4.79,11.85,11.85,0,0,1-.89-2.92,12.14,12.14,0,0,1-.13-3,11.54,11.54,0,0,1,.64-2.92,11.67,11.67,0,0,1,3.5-5,11.44,11.44,0,0,1,2.67-1.69,11.64,11.64,0,0,1,2.92-.91,10.71,10.71,0,0,1,3-.12,11.68,11.68,0,0,1,5.66,2,11.7,11.7,0,0,1,2.34,2.12m-1.4,8.76a13,13,0,0,1-1.22,2.32,9.68,9.68,0,0,1-1.81,2,7.44,7.44,0,0,1-2.38,1.37,6.17,6.17,0,0,1-5.11-.46,8.73,8.73,0,0,1-3.85-4.58,6.69,6.69,0,0,1-.34-2.66,6.09,6.09,0,0,1,.77-2.47,7.15,7.15,0,0,1,1.75-2.11,9.58,9.58,0,0,1,1.09-.81,8.23,8.23,0,0,1,1.12-.63,8.14,8.14,0,0,1,1.19-.46,12.71,12.71,0,0,1,1.32-.37l2,2.38a12.83,12.83,0,0,0-1.56.17,7.86,7.86,0,0,0-1.23.32,4.5,4.5,0,0,0-1,.49,6.41,6.41,0,0,0-.93.67,4.49,4.49,0,0,0-1.15,1.39,3.87,3.87,0,0,0-.45,1.58,4.12,4.12,0,0,0,.26,1.63,6.11,6.11,0,0,0,2.36,2.82,4.43,4.43,0,0,0,1.57.53,3.91,3.91,0,0,0,1.62-.17,4.71,4.71,0,0,0,1.57-.89,10.5,10.5,0,0,0,.83-.79,5.71,5.71,0,0,0,.65-.93,10.13,10.13,0,0,0,.54-1.14,12.24,12.24,0,0,0,.44-1.49l2,2.33m-14.46,4.55a8.86,8.86,0,0,0,2.78,2.22,9,9,0,0,0,3.29.94,9.15,9.15,0,0,0,3.39-.37,8.68,8.68,0,0,0,3.11-1.69,8.8,8.8,0,0,0,2.22-2.78,9.15,9.15,0,0,0,1-3.29,8.95,8.95,0,0,0-4.83-8.76,9,9,0,0,0-6.73-.57,9,9,0,0,0-5.33,4.47,8.94,8.94,0,0,0-.57,6.71,8.76,8.76,0,0,0,1.7,3.12"></path><path class="watermark-path" d="M147,349c-.48.12-1.09.31-1.82.57a24.37,24.37,0,0,0-2.4,1A28.35,28.35,0,0,0,140,352a20.72,20.72,0,0,0-2.71,1.94c-.7.59-1.28,1.11-1.74,1.57a15.07,15.07,0,0,0-1.1,1.22,4.09,4.09,0,0,0-.59.92,2.32,2.32,0,0,0-.22.64,1.16,1.16,0,0,0,0,.47,1.83,1.83,0,0,0,.18.29,1.15,1.15,0,0,0,1,.37,5.54,5.54,0,0,0,1.51-.38q.87-.35,1.95-.9l2.26-1.18q1.2-.65,2.49-1.29c.87-.44,1.73-.83,2.59-1.17a18.94,18.94,0,0,1,2.6-.81,9.27,9.27,0,0,1,2.46-.29,6.25,6.25,0,0,1,2.24.49,5.12,5.12,0,0,1,1.89,1.47,6.35,6.35,0,0,1,1.41,2.61,6,6,0,0,1,.09,2.6,8.3,8.3,0,0,1-.9,2.52,17.79,17.79,0,0,1-1.62,2.37,23.92,23.92,0,0,1-2,2.15c-.72.67-1.41,1.29-2.09,1.87a33.79,33.79,0,0,1-5.33,3.7,32.29,32.29,0,0,1-4.91,2.28l-3.61-4.3a21.38,21.38,0,0,0,5.39-1.87,27.2,27.2,0,0,0,5.4-3.56,21.59,21.59,0,0,0,2.38-2.27,8.67,8.67,0,0,0,1.18-1.7,2.32,2.32,0,0,0,.27-1.19,1.34,1.34,0,0,0-.28-.74,1.21,1.21,0,0,0-1-.42,4.32,4.32,0,0,0-1.55.34,15.77,15.77,0,0,0-2,.88c-.72.37-1.48.77-2.27,1.21l-2.45,1.3c-.85.45-1.7.85-2.56,1.21a22.37,22.37,0,0,1-2.54.86,10,10,0,0,1-2.43.32,5.76,5.76,0,0,1-2.2-.45,5,5,0,0,1-1.89-1.45,6.12,6.12,0,0,1-1.31-2.41,6,6,0,0,1-.1-2.41,8.28,8.28,0,0,1,.81-2.38,14.06,14.06,0,0,1,1.49-2.24,22.37,22.37,0,0,1,1.85-2.05q1-1,2-1.77c.7-.59,1.44-1.15,2.23-1.7s1.62-1.06,2.44-1.53,1.63-.91,2.43-1.3,1.58-.75,2.3-1L147,349"></path><path class="watermark-path" d="M186.76,337.57l-10.6-12.63,3.92,18.24-4.66,3.91-17.27-7,10.6,12.63-4.86,4.07-15.09-18,6.59-5.54,18.69,7.52-4.15-19.71,6.57-5.52,15.09,18-4.83,4.05"></path><path class="watermark-path" d="M208.84,313.24l-10,8.42,1.16,4.82L194.56,331l-5.68-25.89,5.42-4.55,24.51,10.09-5.42,4.55-4.55-2m-11.23,3.45,6.57-5.52-8.83-3.87,2.26,9.39"></path><path class="watermark-path" d="M227.49,281.38c-.48.12-1.09.31-1.82.57a24.37,24.37,0,0,0-2.4,1,26.11,26.11,0,0,0-2.7,1.47,20.72,20.72,0,0,0-2.71,1.94c-.7.59-1.28,1.11-1.74,1.57a13.39,13.39,0,0,0-1.1,1.22,4.29,4.29,0,0,0-.59.91,2.48,2.48,0,0,0-.22.65,1.16,1.16,0,0,0,0,.47,1.83,1.83,0,0,0,.18.29,1.15,1.15,0,0,0,1,.37,5.54,5.54,0,0,0,1.51-.38q.87-.34,2-.9l2.26-1.18q1.2-.64,2.49-1.29c.87-.44,1.73-.83,2.59-1.17a18.94,18.94,0,0,1,2.6-.81,9.27,9.27,0,0,1,2.46-.29,6.08,6.08,0,0,1,2.24.49,5.09,5.09,0,0,1,1.89,1.46,6.47,6.47,0,0,1,1.41,2.61,6.07,6.07,0,0,1,.09,2.61,8.3,8.3,0,0,1-.9,2.52,16.32,16.32,0,0,1-1.63,2.36,21.41,21.41,0,0,1-2,2.16c-.72.67-1.41,1.29-2.1,1.86a33.36,33.36,0,0,1-5.32,3.71,31.92,31.92,0,0,1-4.92,2.28l-3.6-4.3a21.38,21.38,0,0,0,5.39-1.87,27.2,27.2,0,0,0,5.4-3.56,21.59,21.59,0,0,0,2.38-2.27,8.67,8.67,0,0,0,1.18-1.7A2.32,2.32,0,0,0,231,293a1.34,1.34,0,0,0-.28-.74,1.21,1.21,0,0,0-1-.42,4.32,4.32,0,0,0-1.55.34,16.54,16.54,0,0,0-2,.88c-.71.37-1.47.77-2.26,1.21l-2.46,1.3c-.84.44-1.7.85-2.55,1.21a24.53,24.53,0,0,1-2.54.86A10,10,0,0,1,214,298a5.76,5.76,0,0,1-2.2-.45,5,5,0,0,1-1.89-1.45,6.12,6.12,0,0,1-1.31-2.41,5.78,5.78,0,0,1-.1-2.41,8,8,0,0,1,.81-2.38,14.61,14.61,0,0,1,1.49-2.25,22.26,22.26,0,0,1,1.85-2q1-1,2-1.77c.7-.59,1.44-1.15,2.23-1.7s1.62-1.06,2.44-1.53,1.63-.91,2.43-1.31,1.58-.74,2.3-1l3.5,4.16"></path><path class="watermark-path" d="M261.64,274.74l-6.29-7.5L243,277.61l6.3,7.5-4.86,4.07-15.09-18,4.85-4.08,5.49,6.55L252,263.3l-5.49-6.55,4.86-4.07,15.09,18-4.86,4.08"></path><path class="watermark-path" d="M272.18,265.9l-15.09-18,4.86-4.08,15.09,18-4.86,4.08"></path><path class="watermark-path" d="M299.65,242.85l-22.51-2.18L287.51,253l-4.85,4.08-15.1-18,5.28-4.43,22.56,2.22L285,224.5l4.83-4.06,15.09,18-5.26,4.42"></path><path class="watermark-path" d="M306.68,205.52a31.88,31.88,0,0,1,5.29-3.66,34.48,34.48,0,0,1,5.14-2.35l3.69,4.39a20.77,20.77,0,0,0-2.37.61,20.47,20.47,0,0,0-2.61,1,25.12,25.12,0,0,0-2.76,1.49,23.9,23.9,0,0,0-2.8,2,20.42,20.42,0,0,0-2.8,2.77,12.77,12.77,0,0,0-1.64,2.52,7,7,0,0,0-.68,2.24,6,6,0,0,0,.66,3.64,8.16,8.16,0,0,0,.94,1.38,9.12,9.12,0,0,0,1.08,1.07,6.39,6.39,0,0,0,1.47.91,6.73,6.73,0,0,0,1.88.48,6.54,6.54,0,0,0,2.28-.18,11.67,11.67,0,0,0,2.74-1.07,19.38,19.38,0,0,0,3.18-2.22c.57-.48,1.06-.92,1.46-1.31a14.57,14.57,0,0,0,1-1.13,11.46,11.46,0,0,0,.81-1.05l.74-1.09-1.82-2.17-5.45,4.57-3.31-3.94,10.31-8.65,7.71,9.19a29,29,0,0,1-1.67,2.43q-1,1.26-2.1,2.52c-.74.84-1.5,1.65-2.3,2.44s-1.58,1.5-2.33,2.14a31,31,0,0,1-3.59,2.61,22.55,22.55,0,0,1-3.64,1.83,15.64,15.64,0,0,1-3.63.89,10.72,10.72,0,0,1-3.49-.15,10.45,10.45,0,0,1-3.28-1.33,12.54,12.54,0,0,1-3-2.67,12,12,0,0,1-2.08-3.44,10.45,10.45,0,0,1-.71-3.5,11.14,11.14,0,0,1,.51-3.51,15.72,15.72,0,0,1,1.56-3.43,21.62,21.62,0,0,1,2.42-3.28,30.3,30.3,0,0,1,3.15-3"></path><path class="watermark-path" d="M336.91,211.59l-15.1-18,4.86-4.08,11.79,14,13.13-11,3.31,3.94-18,15.1"></path><path class="watermark-path" d="M374.54,164.71a12.28,12.28,0,0,1,2.59,4.81,10.44,10.44,0,0,1,0,5,14.62,14.62,0,0,1-2.33,5,25.55,25.55,0,0,1-4.56,4.85,26.07,26.07,0,0,1-5.6,3.67,14.79,14.79,0,0,1-5.38,1.43,10.43,10.43,0,0,1-4.94-.89,13.24,13.24,0,0,1-6.87-8.18,10.48,10.48,0,0,1,0-5,14.51,14.51,0,0,1,2.36-5,25.23,25.23,0,0,1,4.57-4.89,25,25,0,0,1,5.59-3.64,14.45,14.45,0,0,1,5.35-1.43,10.31,10.31,0,0,1,4.93.92,12.22,12.22,0,0,1,4.28,3.38m-4.91,4.11a8.36,8.36,0,0,0-2-1.72,5.5,5.5,0,0,0-2.65-.85,7.72,7.72,0,0,0-3.32.57,14.49,14.49,0,0,0-4,2.52,16.72,16.72,0,0,0-2.38,2.4,10.15,10.15,0,0,0-1.39,2.24,6.71,6.71,0,0,0-.56,2.1,5.69,5.69,0,0,0,.1,1.9,6.21,6.21,0,0,0,.61,1.69,9.85,9.85,0,0,0,1,1.44,10.48,10.48,0,0,0,1.26,1.23,6.67,6.67,0,0,0,1.57.92,6.1,6.1,0,0,0,1.85.41,6.8,6.8,0,0,0,2.15-.2,11.06,11.06,0,0,0,2.45-1,17.67,17.67,0,0,0,2.77-1.94,14.39,14.39,0,0,0,3.18-3.52,7.74,7.74,0,0,0,1.14-3.17,5.54,5.54,0,0,0-.37-2.74,8.52,8.52,0,0,0-1.36-2.3"></path><path class="watermark-path" d="M382.66,141.76A32.3,32.3,0,0,1,388,138.1a34.12,34.12,0,0,1,5.15-2.35l3.69,4.4a19.62,19.62,0,0,0-2.37.6,22.08,22.08,0,0,0-2.61,1,26,26,0,0,0-2.77,1.49,23.9,23.9,0,0,0-2.8,2,21,21,0,0,0-2.8,2.78,13.19,13.19,0,0,0-1.64,2.51,7.29,7.29,0,0,0-.68,2.24,6.36,6.36,0,0,0,.06,2,5.8,5.8,0,0,0,.61,1.68,8.12,8.12,0,0,0,.93,1.38,9.16,9.16,0,0,0,1.08,1.08,6.56,6.56,0,0,0,1.48.9,6,6,0,0,0,1.87.48,6.76,6.76,0,0,0,2.28-.17,12,12,0,0,0,2.74-1.08,18.57,18.57,0,0,0,3.18-2.22c.58-.48,1.06-.92,1.46-1.31s.75-.77,1.05-1.12.57-.72.81-1.06l.73-1.09-1.82-2.17-5.45,4.57-3.3-3.94,10.3-8.65,7.71,9.19a29,29,0,0,1-1.67,2.43q-1,1.26-2.1,2.52c-.73.84-1.5,1.66-2.3,2.44s-1.57,1.5-2.33,2.14a31,31,0,0,1-3.59,2.61,22.15,22.15,0,0,1-3.64,1.83,15.56,15.56,0,0,1-3.62.89,11,11,0,0,1-3.49-.14,10.84,10.84,0,0,1-3.28-1.33,12.82,12.82,0,0,1-3-2.68,12.12,12.12,0,0,1-2.08-3.43A10.71,10.71,0,0,1,375,155a11.18,11.18,0,0,1,.51-3.51,15.51,15.51,0,0,1,1.57-3.43,21.44,21.44,0,0,1,2.42-3.28,30.19,30.19,0,0,1,3.14-3"></path><path class="watermark-path" d="M428.63,119.31a12.26,12.26,0,0,1,2.59,4.82,10.44,10.44,0,0,1,0,5,14.53,14.53,0,0,1-2.34,5,25.29,25.29,0,0,1-4.56,4.86,26,26,0,0,1-5.59,3.67,14.84,14.84,0,0,1-5.38,1.43,10.61,10.61,0,0,1-4.95-.89,12.15,12.15,0,0,1-4.3-3.37,12,12,0,0,1-2.56-4.81,10.48,10.48,0,0,1,0-5,14.39,14.39,0,0,1,2.35-5,27.89,27.89,0,0,1,10.16-8.53,14.49,14.49,0,0,1,5.36-1.43,10.27,10.27,0,0,1,4.92.92,12.21,12.21,0,0,1,4.28,3.37m-4.91,4.12a8.17,8.17,0,0,0-2-1.72,5.58,5.58,0,0,0-2.65-.86,7.86,7.86,0,0,0-3.31.58,14.49,14.49,0,0,0-4,2.52,16.21,16.21,0,0,0-2.38,2.4,9.85,9.85,0,0,0-1.4,2.24,7,7,0,0,0-.56,2.1,6,6,0,0,0,.1,1.9,6.23,6.23,0,0,0,.62,1.69,8.49,8.49,0,0,0,1,1.44,9.18,9.18,0,0,0,1.26,1.23,6.67,6.67,0,0,0,1.57.92,6,6,0,0,0,1.84.41,6.86,6.86,0,0,0,2.16-.2,11.26,11.26,0,0,0,2.45-1,17.62,17.62,0,0,0,2.76-1.94,14.67,14.67,0,0,0,3.19-3.52,7.71,7.71,0,0,0,1.13-3.17,5.53,5.53,0,0,0-.36-2.74,8.55,8.55,0,0,0-1.37-2.3"></path></g><rect data-element-id="element-id-73108" stroke-width="2" fill="transparent" class="invisible-element-box grouping-element" x="297" y="155" width="188" height="160" data-element-name="isPrimaryText"></rect><rect data-element-id="element-id-3973" stroke-width="2" fill="transparent" class="invisible-element-box grouping-element" x="65" y="158" width="180" height="154" data-element-name="isIcon"></rect><rect data-element-id="element-id-46103" stroke-width="2" fill="transparent" class="invisible-element-box individual-element" x="65" y="158" width="180" height="154"></rect><rect data-element-id="element-id-58676" stroke-width="2" fill="transparent" class="invisible-element-box individual-element" x="404" y="183" width="81" height="97"></rect><rect data-element-id="element-id-37404" stroke-width="2" fill="transparent" class="invisible-element-box individual-element" x="297" y="155" width="81" height="96"></rect><rect data-element-id="element-id-35810" stroke-width="2" fill="transparent" class="invisible-element-box individual-element" x="377" y="155" width="33" height="96"></rect><rect data-element-id="element-id-40465" stroke-width="2" fill="transparent" class="invisible-element-box individual-element" x="297" y="293" width="19" height="22"></rect><rect data-element-id="element-id-80534" stroke-width="2" fill="transparent" class="invisible-element-box individual-element" x="404" y="293" width="19" height="22"></rect><rect data-element-id="element-id-48903" stroke-width="2" fill="transparent" class="invisible-element-box individual-element" x="423" y="293" width="19" height="22"></rect><rect data-element-id="element-id-92024" stroke-width="2" fill="transparent" class="invisible-element-box individual-element" x="466" y="293" width="19" height="22"></rect><rect data-element-id="element-id-76373" stroke-width="2" fill="transparent" class="invisible-element-box individual-element" x="380" y="286" width="18" height="22"></rect><rect data-element-id="element-id-88053" stroke-width="2" fill="transparent" class="invisible-element-box individual-element" x="336" y="286" width="17" height="22"></rect><rect data-element-id="element-id-14089" stroke-width="2" fill="transparent" class="invisible-element-box individual-element" x="362" y="293" width="18" height="16"></rect><rect data-element-id="element-id-16548" stroke-width="2" fill="transparent" class="invisible-element-box individual-element" x="449" y="293" width="18" height="16"></rect><rect data-element-id="element-id-22502" stroke-width="2" fill="transparent" class="invisible-element-box individual-element" x="317" y="293" width="17" height="16"></rect><rect data-element-id="element-id-65496" stroke-width="2" fill="transparent" class="invisible-element-box individual-element" x="398" y="286" width="8" height="22"></rect><rect data-element-id="element-id-20066" stroke-width="2" fill="transparent" class="invisible-element-box individual-element" x="442" y="286" width="8" height="22"></rect></svg>