<svg width="10" height="9" viewBox="0 0 10 9" fill="none" xmlns="http://www.w3.org/2000/svg">
    <g clip-path="url(#clip0_476_857)">
        <path d="M5.39251 3.81312C7.02759 4.76713 7.91409 6.80129 6.94968 7.98789C5.98527 9.17449 5.07034 9.16266 4.40178 8.73493C3.6532 8.25497 3.85324 7.76318 3.10571 7.2369C2.35819 6.70964 1.737 7.26056 0.791542 6.63375C0.118769 6.18828 -0.364491 5.24413 0.361978 4.2369C1.08845 3.22968 3.1373 2.4984 5.39251 3.8141V3.81312Z" fill="#4878D0"/>
        <path d="M9.31857 2.36632C9.49334 2.64129 9.43333 3.06902 8.99218 3.3361C8.50892 3.62881 7.33078 3.92349 7.13074 3.50956C6.90227 3.03847 7.79509 2.32592 8.08778 2.1564C8.70054 1.79964 9.11852 2.05095 9.31962 2.36632H9.31857Z" fill="#4878D0"/>
        <path d="M6.32216 0.0788437C6.00841 -0.0818002 5.46093 -0.023653 5.15771 0.512484C4.87659 1.01117 4.65971 2.08837 5.13033 2.26873C5.66623 2.47372 6.45166 1.52464 6.63275 1.23193C6.94334 0.730289 6.68329 0.263141 6.32216 0.0788437Z" fill="#4878D0"/>
        <path d="M2.58369 0.367609C2.25414 0.349869 2.01304 0.612024 1.92987 0.998358C1.82037 1.50986 2.07727 2.19678 2.54684 2.17313C3.08063 2.14652 3.20803 1.48916 3.22488 1.17773C3.25014 0.722405 2.96272 0.388305 2.58369 0.367609Z" fill="#4878D0"/>
        <path d="M9.9769 5.27664C10.0759 5.59202 9.84319 5.88768 9.43678 6.06015C8.89878 6.2888 8.0786 6.20404 7.99227 5.74478C7.89435 5.22145 8.58924 4.94156 8.92931 4.85089C9.42626 4.71784 9.86319 4.91495 9.9769 5.27664Z" fill="#4878D0"/>
    </g>
    <defs>
        <clipPath id="clip0_476_857">
            <rect width="10" height="9" fill="white"/>
        </clipPath>
    </defs>
</svg>
